<?xml version="1.0" encoding="UTF-8"?>
<svg id="Layer_2" data-name="Layer 2" xmlns="http://www.w3.org/2000/svg" viewBox="0 0 519.85 260.22">
  <defs>
    <style>
      .cls-1 {
        fill: #000;
        stroke-width: 0px;
      }
    </style>
  </defs>
  <g id="Layer_1-2" data-name="Layer 1">
    <path class="cls-1" d="M510.61,39.75c-3.22-1.92-6.73-2.6-10.45-2.71-8.7-.27-16.02-6.95-17.15-15.57-.24-1.84-.19-3.71-.49-5.53-1.57-9.3-9.18-15.79-18.63-15.91-4.39-.05-8.78-.01-13.16-.01-7.91,0-15.82-.02-23.73.01-5.82.02-10.7,2.21-14.54,6.59-3.24,3.7-4.5,8.11-4.64,12.97-.29,9.61-8.03,17.35-17.66,17.45-12.66.12-25.33.1-37.99,0-7.51-.05-14.13-4.98-16.65-12.04-.82-2.3-1-4.69-1.12-7.1-.25-5.04-2.25-9.32-5.93-12.76-3.9-3.64-8.58-5.14-13.88-5.14C228.71.03,142.82.02,56.94.02c-.56,0-1.11,0-1.67.02-5.1.27-9.46,2.22-12.98,5.92-3.68,3.87-5.21,8.56-5.21,13.85.02,21.43.01,42.86.01,64.3,0,3.15.09,6.3-.04,9.45-.27,7.16-3.71,12.39-10.02,15.73-2.61,1.38-5.45,1.87-8.4,1.94-5.6.14-10.3,2.34-13.99,6.56C1.35,121.54.01,126,.01,130.93.02,153.72.01,176.52.01,199.31c0,1.6-.03,3.21.01,4.81.14,5.8,2.26,10.71,6.68,14.52,3.57,3.06,7.76,4.36,12.44,4.53,7.51.28,13,3.85,16.33,10.61,1.16,2.36,1.56,4.91,1.64,7.54.19,6.45,2.8,11.7,8.09,15.48,3.54,2.53,7.56,3.42,11.89,3.42,61.48-.03,122.96-.02,184.43-.02h183.32c.87,0,1.74.02,2.6-.02,5.82-.28,10.6-2.64,14.22-7.22,2.61-3.31,3.94-7.1,4-11.31.09-5.03,1.71-9.45,5.27-13.06,3.66-3.71,8.18-5.29,13.35-5.49,7.79-.31,13.43-4.07,16.82-11.11,1.34-2.78,1.67-5.77,1.66-8.84-.02-36.07-.01-72.14-.01-108.21,0-.74-.01-1.48.02-2.22.36-9.11,6.55-16.13,15.57-17.58,1.88-.3,3.82-.26,5.7-.56,7.98-1.29,13.96-7.19,15.48-15.19,1.47-7.72-2.1-15.56-8.91-19.64ZM435.97,219.87c-2.68,1.65-5.64,2.45-8.8,2.52-.8.01-1.6.01-2.41.01h-127.72c-42.89,0-85.77-.01-128.66.01-3,0-5.93-.34-8.65-1.66-6.77-3.32-10.32-8.8-10.64-16.31-.12-2.88-.54-5.65-1.83-8.24-3.39-6.79-8.93-10.34-16.46-10.84-.74-.05-1.48-.02-2.22-.02-23.98,0-47.95-.02-71.93,0-5.7.01-10.5-1.98-14.3-6.23-3.2-3.58-4.52-7.86-4.52-12.6v-26.13c0-3.4-.05-6.8.01-10.19.17-8.61,5.59-15.57,13.74-17.62,1.54-.39,3.17-.55,4.76-.61,9.34-.32,16.71-6.64,18.31-15.84.23-1.33.24-2.71.25-4.06.01-11.8.01-23.6.01-35.4,0-5.67,1.95-10.5,6.23-14.3,3.17-2.81,6.92-4.22,11.12-4.5.74-.05,1.48-.04,2.22-.04h219.67c2.49,0,4.93.2,7.3,1.02,7.18,2.51,12.01,8.91,12.21,16.5.16,5.91,2.09,10.99,6.61,14.94,3.33,2.91,7.25,4.53,11.65,4.56,12.86.08,25.71.15,38.56-.01,9.72-.12,17.7-8.17,18.07-17.88.13-3.25.59-6.38,2.12-9.3,3.73-7.15,11.46-10.9,19.6-9.46,7.47,1.32,13.51,7.7,14.52,15.39.14,1.09.14,2.22.14,3.33,0,48.79-.01,97.59.02,146.39,0,7.21-2.8,12.79-8.98,16.57Z"/>
    <path class="cls-1" d="M444.95,203.3c0,7.21-2.8,12.79-8.98,16.57-2.68,1.65-5.64,2.45-8.8,2.52-.8.01-1.6.01-2.41.01h-127.72c-42.89,0-85.77-.01-128.66.01-3,0-5.93-.34-8.65-1.66-6.77-3.32-10.32-8.8-10.64-16.31-.12-2.88-.54-5.65-1.83-8.24-3.39-6.79-8.93-10.34-16.46-10.84-.74-.05-1.48-.02-2.22-.02-23.98,0-47.95-.02-71.93,0-5.7.01-10.5-1.98-14.3-6.23-3.2-3.58-4.52-7.86-4.52-12.6v-26.13c0-3.4-.05-6.8.01-10.19.17-8.61,5.59-15.57,13.74-17.62,1.54-.39,3.17-.55,4.76-.61,9.34-.32,16.71-6.64,18.31-15.84.23-1.33.24-2.71.25-4.06.01-11.8.01-23.6.01-35.4,0-5.67,1.95-10.5,6.23-14.3,3.17-2.81,6.92-4.22,11.12-4.5.74-.05,1.48-.04,2.22-.04h219.67c2.49,0,4.93.2,7.3,1.02,7.18,2.51,12.01,8.91,12.21,16.5.16,5.91,2.09,10.99,6.61,14.94,3.33,2.91,7.25,4.53,11.65,4.56,12.86.08,25.71.15,38.56-.01,9.72-.12,17.7-8.17,18.07-17.88.13-3.25.59-6.38,2.12-9.3,3.73-7.15,11.46-10.9,19.6-9.46,7.47,1.32,13.51,7.7,14.52,15.39.14,1.09.14,2.22.14,3.33,0,48.79-.01,97.59.02,146.39Z"/>
  </g>
</svg>