<?xml version="1.0" encoding="UTF-8"?>
<svg id="Layer_1" data-name="Layer 1" xmlns="http://www.w3.org/2000/svg" version="1.1" viewBox="0 0 1920 1080">
  <defs>
    <style>
      .cls-1 {
        fill: #9e9886;
      }

      .cls-1, .cls-2, .cls-3 {
        stroke-width: 0px;
      }

      .cls-2 {
        fill: #5b854b;
      }

      .cls-3 {
        fill: #ee674a;
      }
    </style>
  </defs>
  <path class="cls-1" d="M1008.08,10.65c-9.7.27-18.16-7.48-18.64-17.09-.51-10.23,7.38-18.93,17.47-19.24,9.93-.31,18.68,8.14,18.75,18.11.07,9.55-8.04,17.96-17.58,18.22Z"/>
  <path class="cls-1" d="M1008.08,50.65c-9.7.27-18.16-7.48-18.64-17.09-.51-10.23,7.38-18.93,17.47-19.24,9.93-.31,18.68,8.14,18.75,18.11.07,9.55-8.04,17.96-17.58,18.22Z"/>
  <path class="cls-2" d="M825.67,72.9c-.2,9.54-8.56,17.75-18.06,17.76-10.14,0-18.51-8.55-18.18-18.57.32-9.94,8.21-17.74,17.96-17.78,9.95-.03,18.49,8.65,18.28,18.59Z"/>
  <path class="cls-2" d="M847.37,54.31c9.95-.04,18.5,8.64,18.3,18.58-.19,9.54-8.54,17.76-18.05,17.77-9.73,0-17.98-7.95-18.21-17.56-.25-10.24,7.89-18.74,17.96-18.79Z"/>
  <path class="cls-2" d="M887.95,90.66c-9.71.2-18.11-7.62-18.52-17.23-.44-10.25,7.51-18.88,17.61-19.12,9.92-.23,18.63,8.3,18.62,18.25,0,9.52-8.21,17.91-17.71,18.1Z"/>
  <path class="cls-2" d="M927.74,54.31c9.96.17,18.32,9.02,17.9,18.95-.4,9.59-8.87,17.59-18.4,17.4-9.72-.2-17.82-8.33-17.85-17.93-.03-10.26,8.26-18.59,18.34-18.41Z"/>
  <path class="cls-1" d="M1008.08,90.65c-9.7.27-18.16-7.48-18.64-17.09-.51-10.23,7.38-18.93,17.47-19.24,9.93-.31,18.68,8.14,18.75,18.11.07,9.55-8.04,17.96-17.58,18.22Z"/>
  <path class="cls-2" d="M767.96,130.66c-9.7.2-18.11-7.62-18.53-17.22-.44-10.25,7.5-18.88,17.6-19.13,9.92-.24,18.63,8.29,18.63,18.24,0,9.56-8.17,17.91-17.7,18.1Z"/>
  <path class="cls-2" d="M825.66,112.56c0,9.54-8.2,17.9-17.71,18.1-10.11.2-18.67-8.21-18.54-18.22.13-9.9,7.9-17.89,17.63-18.12,9.92-.24,18.63,8.3,18.62,18.25Z"/>
  <path class="cls-2" d="M847.37,130.66c-9.73-.13-17.88-8.21-17.97-17.81-.1-10.26,8.14-18.64,18.22-18.54,9.95.1,18.38,8.9,18.03,18.83-.33,9.58-8.75,17.65-18.28,17.52Z"/>
  <path class="cls-2" d="M887.5,130.66c-9.73-.06-17.94-8.07-18.1-17.68-.18-10.24,8.02-18.7,18.09-18.67,9.95.03,18.44,8.77,18.17,18.7-.26,9.57-8.63,17.71-18.16,17.65Z"/>
  <path class="cls-2" d="M945.66,112.45c.06,9.53-8.09,17.96-17.6,18.21-10.09.27-18.72-8.12-18.65-18.11.07-9.89,7.81-17.94,17.52-18.23,9.93-.3,18.67,8.17,18.73,18.13Z"/>
  <path class="cls-2" d="M968.08,130.65c-9.7.27-18.16-7.49-18.64-17.09-.51-10.23,7.38-18.93,17.47-19.24,9.93-.31,18.68,8.14,18.75,18.11.07,9.55-8.05,17.95-17.58,18.22Z"/>
  <path class="cls-1" d="M1008.08,130.65c-9.7.27-18.16-7.49-18.64-17.09-.51-10.23,7.38-18.93,17.47-19.24,9.93-.31,18.68,8.14,18.75,18.11.07,9.55-8.04,17.96-17.58,18.22Z"/>
  <path class="cls-2" d="M785.66,152.84c-.16,9.54-8.48,17.78-17.99,17.82-10.13.04-18.54-8.48-18.25-18.5.29-9.92,8.16-17.77,17.89-17.84,9.94-.08,18.51,8.58,18.35,18.53Z"/>
  <path class="cls-2" d="M927.63,134.31c9.95.11,18.37,8.91,18.02,18.84-.34,9.58-8.76,17.64-18.3,17.51-9.73-.14-17.87-8.21-17.96-17.82-.1-10.25,8.15-18.63,18.23-18.52Z"/>
  <path class="cls-2" d="M967.56,170.66c-9.73-.02-17.96-8.01-18.16-17.62-.21-10.24,7.96-18.72,18.03-18.73,9.94,0,18.47,8.7,18.24,18.64-.22,9.53-8.61,17.73-18.1,17.71Z"/>
  <path class="cls-1" d="M1008.08,170.65c-9.7.27-18.16-7.49-18.64-17.09-.51-10.23,7.38-18.93,17.47-19.24,9.93-.31,18.68,8.14,18.75,18.11.07,9.55-8.04,17.96-17.58,18.22Z"/>
  <path class="cls-2" d="M967.51,174.31c9.95.04,18.43,8.79,18.14,18.72-.27,9.55-8.67,17.69-18.19,17.62-9.73-.07-17.93-8.1-18.08-17.7-.16-10.24,8.05-18.68,18.12-18.64Z"/>
  <path class="cls-1" d="M1008.08,210.65c-9.7.27-18.16-7.49-18.64-17.09-.51-10.23,7.38-18.93,17.47-19.24,9.93-.31,18.68,8.14,18.75,18.11.07,9.55-8.04,17.96-17.58,18.22Z"/>
  <path class="cls-2" d="M968.08,250.65c-9.7.27-18.16-7.48-18.64-17.09-.51-10.23,7.38-18.93,17.47-19.24,9.93-.31,18.68,8.15,18.75,18.11.07,9.55-8.05,17.96-17.58,18.22Z"/>
  <path class="cls-1" d="M1008.08,250.65c-9.7.27-18.16-7.49-18.64-17.09-.51-10.23,7.38-18.93,17.47-19.24,9.93-.31,18.68,8.14,18.75,18.11.07,9.55-8.04,17.96-17.58,18.22Z"/>
  <path class="cls-3" d="M888.08,290.65c-9.7.27-18.16-7.48-18.64-17.09-.51-10.23,7.38-18.93,17.47-19.24,9.93-.31,18.68,8.14,18.75,18.11.07,9.55-8.05,17.95-17.58,18.22Z"/>
  <path class="cls-3" d="M945.66,272.56c0,9.54-8.2,17.9-17.71,18.1-10.11.2-18.67-8.21-18.54-18.22.13-9.9,7.9-17.89,17.63-18.12,9.92-.23,18.63,8.3,18.62,18.25Z"/>
  <path class="cls-3" d="M967.47,290.66c-9.73-.07-17.92-8.1-18.08-17.71-.16-10.24,8.05-18.68,18.12-18.64,9.95.04,18.43,8.79,18.14,18.72-.27,9.56-8.66,17.69-18.19,17.62Z"/>
  <path class="cls-3" d="M1025.66,272.79c-.14,9.54-8.44,17.8-17.95,17.87-10.13.07-18.56-8.43-18.3-18.46.26-9.91,8.13-17.79,17.85-17.89,9.94-.1,18.54,8.54,18.39,18.48Z"/>
  <path class="cls-3" d="M1048.59,254.32c9.96.68,17.92,9.94,17.01,19.78-.89,9.62-9.65,17.16-19.2,16.5-9.77-.67-17.39-9.08-16.97-18.72.45-10.28,9.14-18.25,19.15-17.56Z"/>
  <path class="cls-3" d="M1088.08,290.65c-9.7.27-18.16-7.49-18.64-17.09-.51-10.23,7.38-18.93,17.47-19.24,9.93-.31,18.68,8.14,18.75,18.11.07,9.55-8.05,17.95-17.58,18.22Z"/>
  <path class="cls-3" d="M1128.08,290.65c-9.7.27-18.16-7.48-18.64-17.09-.51-10.23,7.38-18.93,17.47-19.24,9.93-.31,18.68,8.14,18.75,18.11.07,9.55-8.04,17.96-17.58,18.22Z"/>
  <path class="cls-3" d="M865.66,312.84c-.16,9.54-8.48,17.78-17.99,17.82-10.13.04-18.54-8.48-18.25-18.5.29-9.91,8.16-17.77,17.89-17.84,9.94-.07,18.52,8.58,18.35,18.52Z"/>
  <path class="cls-3" d="M905.67,312.93c-.21,9.53-8.59,17.74-18.08,17.73-10.14-.01-18.49-8.57-18.15-18.59.34-9.94,8.23-17.73,17.98-17.75,9.94-.02,18.48,8.68,18.26,18.61Z"/>
  <path class="cls-3" d="M945.67,312.93c-.21,9.53-8.59,17.74-18.08,17.73-10.14-.01-18.49-8.57-18.15-18.59.34-9.94,8.23-17.73,17.98-17.75,9.94-.02,18.48,8.68,18.26,18.61Z"/>
  <path class="cls-3" d="M967.5,330.66c-9.73-.06-17.94-8.07-18.1-17.68-.18-10.24,8.02-18.7,18.09-18.67,9.95.03,18.44,8.77,18.17,18.7-.26,9.57-8.63,17.71-18.16,17.65Z"/>
  <path class="cls-3" d="M1008.08,330.65c-9.7.27-18.16-7.49-18.64-17.09-.51-10.23,7.38-18.93,17.47-19.24,9.93-.31,18.68,8.15,18.75,18.11.07,9.55-8.05,17.95-17.58,18.22Z"/>
  <path class="cls-3" d="M1047.58,294.31c9.95.08,18.4,8.86,18.08,18.79-.31,9.57-8.72,17.66-18.25,17.56-9.72-.11-17.9-8.17-18.01-17.77-.12-10.25,8.11-18.66,18.19-18.58Z"/>
  <path class="cls-3" d="M1087.05,294.31c9.92-.23,18.62,8.31,18.61,18.26-.01,9.53-8.22,17.9-17.72,18.08-9.71.19-18.11-7.64-18.51-17.24-.43-10.25,7.52-18.87,17.63-19.11Z"/>
  <path class="cls-3" d="M1128.08,330.65c-9.7.27-18.16-7.49-18.64-17.09-.51-10.23,7.38-18.93,17.47-19.24,9.93-.31,18.68,8.15,18.75,18.11.07,9.55-8.05,17.96-17.58,18.22Z"/>
  <path class="cls-3" d="M1168.08,330.65c-9.7.27-18.16-7.49-18.64-17.09-.51-10.23,7.38-18.93,17.47-19.24,9.93-.31,18.68,8.14,18.75,18.11.07,9.55-8.04,17.96-17.58,18.22Z"/>
  <path class="cls-3" d="M808.08,370.65c-9.7.27-18.16-7.48-18.64-17.09-.51-10.23,7.38-18.93,17.47-19.24,9.93-.31,18.68,8.14,18.75,18.11.07,9.55-8.05,17.95-17.58,18.22Z"/>
  <path class="cls-3" d="M848.08,370.65c-9.7.27-18.16-7.49-18.64-17.09-.51-10.23,7.38-18.93,17.47-19.24,9.93-.31,18.68,8.15,18.75,18.11.07,9.55-8.05,17.96-17.58,18.22Z"/>
  <path class="cls-3" d="M888.08,370.65c-9.7.27-18.16-7.49-18.64-17.09-.51-10.23,7.38-18.93,17.47-19.24,9.93-.31,18.68,8.14,18.75,18.11.07,9.55-8.04,17.96-17.58,18.22Z"/>
  <path class="cls-3" d="M1127.37,370.66c-9.73-.13-17.88-8.21-17.97-17.81-.1-10.26,8.14-18.64,18.22-18.54,9.95.1,18.38,8.9,18.03,18.83-.33,9.58-8.75,17.65-18.28,17.52Z"/>
  <path class="cls-3" d="M1168.08,370.65c-9.7.27-18.16-7.49-18.64-17.09-.51-10.23,7.38-18.93,17.47-19.24,9.93-.31,18.68,8.15,18.75,18.11.07,9.55-8.05,17.96-17.58,18.22Z"/>
  <path class="cls-3" d="M1208.08,370.65c-9.7.27-18.16-7.49-18.64-17.09-.51-10.23,7.38-18.93,17.47-19.24,9.93-.31,18.68,8.14,18.75,18.11.07,9.55-8.04,17.96-17.58,18.22Z"/>
  <path class="cls-3" d="M767.1,374.31c9.92-.2,18.6,8.37,18.56,18.31-.04,9.53-8.26,17.88-17.78,18.03-9.72.16-18.08-7.68-18.46-17.29-.4-10.27,7.56-18.85,17.67-19.05Z"/>
  <path class="cls-3" d="M808.08,410.65c-9.7.27-18.16-7.49-18.64-17.09-.51-10.23,7.38-18.93,17.47-19.24,9.93-.31,18.68,8.15,18.75,18.11.07,9.55-8.05,17.96-17.58,18.22Z"/>
  <path class="cls-3" d="M848.08,410.65c-9.7.27-18.16-7.49-18.64-17.09-.51-10.23,7.38-18.93,17.47-19.24,9.93-.31,18.68,8.14,18.75,18.11.07,9.55-8.04,17.96-17.58,18.22Z"/>
  <path class="cls-3" d="M1168.08,410.65c-9.7.27-18.16-7.49-18.64-17.09-.51-10.23,7.38-18.93,17.47-19.24,9.93-.31,18.68,8.15,18.75,18.11.07,9.55-8.05,17.95-17.58,18.22Z"/>
  <path class="cls-3" d="M1208.08,410.65c-9.7.27-18.16-7.49-18.64-17.09-.51-10.23,7.38-18.93,17.47-19.24,9.93-.31,18.68,8.15,18.75,18.11.07,9.55-8.05,17.96-17.58,18.22Z"/>
  <path class="cls-3" d="M1248.08,410.65c-9.7.27-18.16-7.49-18.64-17.09-.51-10.23,7.38-18.93,17.47-19.24,9.93-.31,18.68,8.14,18.75,18.11.07,9.55-8.04,17.96-17.58,18.22Z"/>
  <path class="cls-3" d="M767.37,414.31c9.94-.04,18.5,8.64,18.3,18.58-.19,9.54-8.54,17.76-18.05,17.77-9.73,0-17.98-7.95-18.21-17.56-.25-10.24,7.89-18.74,17.96-18.79Z"/>
  <path class="cls-3" d="M825.65,432.1c.25,9.52-7.72,18.1-17.24,18.56-10.05.48-18.89-7.79-19.02-17.76-.12-9.85,7.49-18.07,17.18-18.56,9.9-.5,18.81,7.79,19.07,17.77Z"/>
  <path class="cls-3" d="M1207.83,414.31c9.97.23,18.28,9.12,17.81,19.03-.46,9.6-8.95,17.55-18.48,17.31-9.73-.25-17.77-8.41-17.75-18.02.02-10.28,8.35-18.56,18.43-18.32Z"/>
  <path class="cls-3" d="M1265.66,432.56c0,9.54-8.2,17.91-17.71,18.1-10.11.2-18.67-8.21-18.54-18.22.13-9.9,7.9-17.89,17.63-18.12,9.92-.24,18.63,8.3,18.62,18.25Z"/>
  <path class="cls-3" d="M785.66,472.17c.21,9.52-7.81,18.07-17.32,18.48-10.05.43-18.86-7.86-18.94-17.84-.08-9.85,7.56-18.04,17.26-18.49,9.91-.46,18.78,7.87,19,17.85Z"/>
  <path class="cls-3" d="M825.66,473.03c-.27,9.55-8.67,17.7-18.18,17.63-10.13-.07-18.44-8.68-18.05-18.7.4-9.94,8.33-17.69,18.08-17.65,9.95.04,18.43,8.78,18.15,18.72Z"/>
  <path class="cls-3" d="M1207.91,454.31c9.96.28,18.24,9.2,17.73,19.11-.5,9.59-9.03,17.51-18.56,17.22-9.73-.3-17.73-8.48-17.67-18.09.06-10.29,8.42-18.53,18.5-18.25Z"/>
  <path class="cls-3" d="M1265.66,472.66c-.07,9.53-8.31,17.86-17.82,17.99-10.12.14-18.62-8.31-18.43-18.33.19-9.91,8-17.84,17.73-18.02,9.93-.18,18.59,8.4,18.52,18.35Z"/>
  <path class="cls-3" d="M767.96,530.66c-9.7.2-18.11-7.62-18.53-17.22-.44-10.25,7.5-18.88,17.6-19.13,9.92-.24,18.63,8.29,18.63,18.24,0,9.54-8.18,17.91-17.7,18.1Z"/>
  <path class="cls-3" d="M807.18,494.31c9.93-.16,18.57,8.44,18.49,18.39-.08,9.52-8.35,17.84-17.85,17.96-9.71.12-18.06-7.76-18.39-17.36-.36-10.24,7.67-18.82,17.76-18.98Z"/>
  <path class="cls-3" d="M1189.41,513.11c-.25-10.24,7.88-18.75,17.95-18.8,9.55-.05,17.92,7.99,18.29,17.57.39,9.92-8.1,18.76-18.02,18.77-9.74.01-17.99-7.92-18.22-17.54Z"/>
  <path class="cls-3" d="M1247.55,494.31c9.95.06,18.41,8.82,18.11,18.75-.29,9.57-8.68,17.68-18.22,17.59-9.73-.09-17.91-8.14-18.05-17.74-.14-10.25,8.08-18.67,18.15-18.61Z"/>
  <path class="cls-3" d="M767.35,570.66c-9.73-.14-17.87-8.23-17.95-17.83-.09-10.25,8.17-18.63,18.24-18.52,9.95.11,18.37,8.92,18.01,18.85-.34,9.59-8.77,17.64-18.3,17.5Z"/>
  <path class="cls-3" d="M825.66,552.72c-.1,9.53-8.37,17.83-17.87,17.94-10.13.11-18.59-8.37-18.37-18.39.22-9.91,8.05-17.82,17.78-17.96,9.94-.15,18.56,8.46,18.46,18.41Z"/>
  <path class="cls-3" d="M1225.66,552.3c.14,9.5-7.95,18.02-17.44,18.36-10.07.36-18.8-7.98-18.81-17.96-.01-9.87,7.67-17.99,17.38-18.37,9.92-.39,18.73,8,18.88,17.98Z"/>
  <path class="cls-3" d="M1265.66,552.97c-.23,9.54-8.62,17.72-18.12,17.69-10.13-.04-18.47-8.62-18.11-18.64.36-9.94,8.27-17.71,18.02-17.71,9.95,0,18.46,8.72,18.21,18.66Z"/>
  <path class="cls-3" d="M767.87,610.66c-9.71.15-18.08-7.7-18.45-17.3-.39-10.25,7.59-18.85,17.69-19.04,9.92-.19,18.6,8.38,18.55,18.32-.05,9.53-8.28,17.87-17.79,18.02Z"/>
  <path class="cls-3" d="M807.4,610.66c-9.73-.11-17.9-8.17-18.01-17.77-.12-10.25,8.11-18.65,18.19-18.57,9.95.08,18.39,8.86,18.07,18.79-.31,9.58-8.72,17.66-18.25,17.56Z"/>
  <path class="cls-3" d="M1207.4,610.66c-9.73-.11-17.9-8.17-18.01-17.77-.12-10.25,8.11-18.65,18.19-18.57,9.95.08,18.39,8.86,18.07,18.79-.31,9.58-8.72,17.66-18.25,17.56Z"/>
  <path class="cls-3" d="M1247.95,610.66c-9.71.2-18.11-7.62-18.52-17.23-.44-10.25,7.51-18.88,17.61-19.12,9.92-.24,18.63,8.3,18.62,18.25,0,9.52-8.21,17.91-17.71,18.1Z"/>
  <path class="cls-3" d="M767.44,614.31c9.95,0,18.46,8.72,18.22,18.65-.23,9.53-8.62,17.73-18.12,17.69-9.73-.03-17.95-8.03-18.14-17.63-.2-10.23,7.98-18.71,18.05-18.71Z"/>
  <path class="cls-3" d="M825.66,632.36c.1,9.52-8.01,17.99-17.51,18.29-10.07.32-18.76-8.04-18.74-18.03.02-9.88,7.73-17.97,17.44-18.31,9.93-.35,18.71,8.07,18.81,18.05Z"/>
  <path class="cls-3" d="M847.95,650.66c-9.71.2-18.11-7.62-18.52-17.23-.44-10.25,7.51-18.88,17.61-19.12,9.92-.23,18.63,8.3,18.62,18.25,0,9.52-8.21,17.91-17.71,18.1Z"/>
  <path class="cls-3" d="M1167.83,614.31c9.97.23,18.28,9.11,17.81,19.03-.46,9.6-8.95,17.55-18.48,17.31-9.73-.25-17.77-8.41-17.75-18.02.02-10.28,8.35-18.56,18.43-18.32Z"/>
  <path class="cls-3" d="M1207.91,614.31c9.96.28,18.24,9.2,17.73,19.11-.5,9.59-9.03,17.51-18.56,17.22-9.73-.3-17.73-8.48-17.67-18.09.06-10.29,8.42-18.53,18.5-18.25Z"/>
  <path class="cls-3" d="M1265.66,632.38c.09,9.53-8.02,17.98-17.53,18.27-10.07.31-18.75-8.06-18.72-18.05.03-9.88,7.75-17.96,17.46-18.29,9.93-.34,18.7,8.09,18.79,18.07Z"/>
  <path class="cls-3" d="M825.66,672.3c.14,9.5-7.95,18.02-17.44,18.36-10.07.36-18.8-7.98-18.81-17.96-.01-9.87,7.67-17.99,17.38-18.37,9.92-.39,18.73,8,18.88,17.98Z"/>
  <path class="cls-3" d="M865.66,672.38c.09,9.53-8.02,17.98-17.53,18.27-10.07.31-18.75-8.06-18.72-18.05.03-9.88,7.75-17.96,17.46-18.29,9.93-.34,18.7,8.09,18.79,18.07Z"/>
  <path class="cls-3" d="M888.59,654.32c9.96.68,17.92,9.94,17.01,19.78-.89,9.62-9.65,17.15-19.2,16.5-9.77-.67-17.39-9.08-16.97-18.72.45-10.28,9.14-18.25,19.15-17.56Z"/>
  <path class="cls-3" d="M1127.45,654.31c9.95,0,18.46,8.72,18.22,18.65-.23,9.53-8.62,17.73-18.12,17.69-9.73-.03-17.95-8.03-18.14-17.63-.2-10.23,7.98-18.71,18.05-18.71Z"/>
  <path class="cls-3" d="M1167.91,654.31c9.96.28,18.24,9.2,17.73,19.11-.5,9.59-9.03,17.51-18.56,17.22-9.73-.3-17.73-8.48-17.67-18.09.06-10.29,8.42-18.53,18.5-18.25Z"/>
  <path class="cls-3" d="M1225.66,672.38c.09,9.53-8.02,17.98-17.53,18.27-10.07.31-18.75-8.06-18.72-18.05.03-9.88,7.75-17.96,17.46-18.29,9.93-.34,18.7,8.09,18.79,18.07Z"/>
  <path class="cls-3" d="M865.67,712.9c-.2,9.54-8.56,17.75-18.06,17.76-10.14,0-18.51-8.55-18.18-18.57.32-9.94,8.21-17.74,17.96-17.78,9.94-.04,18.49,8.66,18.28,18.59Z"/>
  <path class="cls-3" d="M887.5,730.66c-9.73-.06-17.93-8.07-18.1-17.68-.18-10.24,8.02-18.7,18.09-18.67,9.95.03,18.44,8.77,18.17,18.7-.26,9.55-8.65,17.71-18.16,17.65Z"/>
  <path class="cls-3" d="M927.4,730.66c-9.73-.11-17.9-8.17-18.01-17.77-.12-10.25,8.11-18.66,18.19-18.57,9.95.08,18.39,8.86,18.07,18.79-.31,9.58-8.72,17.66-18.25,17.56Z"/>
  <path class="cls-3" d="M985.66,712.78c-.13,9.54-8.43,17.81-17.93,17.88-10.13.08-18.57-8.42-18.31-18.44.25-9.91,8.11-17.8,17.84-17.9,9.94-.11,18.54,8.52,18.41,18.47Z"/>
  <path class="cls-3" d="M1008.04,730.66c-9.7.24-18.15-7.54-18.6-17.14-.49-10.24,7.42-18.91,17.52-19.2,9.93-.28,18.67,8.19,18.71,18.16.04,9.53-8.11,17.95-17.62,18.19Z"/>
  <path class="cls-3" d="M1048.04,730.66c-9.7.24-18.15-7.54-18.6-17.14-.49-10.24,7.42-18.91,17.52-19.2,9.93-.28,18.67,8.19,18.71,18.16.04,9.53-8.11,17.95-17.62,18.19Z"/>
  <path class="cls-3" d="M1105.66,712.23c.18,9.52-7.87,18.05-17.38,18.43-10.06.4-18.83-7.91-18.88-17.89-.05-9.86,7.61-18.02,17.31-18.44,9.92-.43,18.76,7.93,18.95,17.91Z"/>
  <path class="cls-3" d="M1127.51,694.31c9.95.04,18.43,8.79,18.14,18.72-.27,9.55-8.67,17.69-18.19,17.62-9.73-.07-17.93-8.1-18.08-17.7-.16-10.24,8.05-18.68,18.12-18.64Z"/>
  <path class="cls-3" d="M1185.66,712.27c.15,9.51-7.92,18.03-17.42,18.39-10.06.38-18.81-7.95-18.84-17.93-.03-9.87,7.65-18,17.35-18.4,9.92-.4,18.74,7.97,18.91,17.95Z"/>
  <path class="cls-3" d="M905.66,752.32c.13,9.51-7.98,18.01-17.47,18.34-10.07.35-18.79-8-18.79-17.98,0-9.87,7.69-17.98,17.4-18.35,9.93-.37,18.73,8.02,18.86,18Z"/>
  <path class="cls-3" d="M927.55,734.31c9.95.06,18.41,8.82,18.11,18.75-.29,9.57-8.69,17.68-18.22,17.59-9.73-.09-17.91-8.14-18.05-17.74-.14-10.25,8.08-18.67,18.15-18.61Z"/>
  <path class="cls-3" d="M967.18,734.31c9.93-.16,18.57,8.44,18.49,18.39-.08,9.52-8.35,17.84-17.85,17.96-9.71.12-18.06-7.76-18.39-17.36-.36-10.24,7.67-18.82,17.76-18.98Z"/>
  <path class="cls-3" d="M1025.66,753.03c-.27,9.55-8.67,17.7-18.18,17.63-10.13-.07-18.44-8.68-18.05-18.7.39-9.94,8.33-17.69,18.08-17.65,9.95.04,18.43,8.78,18.15,18.72Z"/>
  <path class="cls-3" d="M1047.55,734.31c9.95.06,18.41,8.82,18.11,18.75-.29,9.57-8.69,17.68-18.22,17.59-9.73-.09-17.91-8.14-18.05-17.74-.14-10.25,8.08-18.67,18.15-18.61Z"/>
  <path class="cls-3" d="M1105.66,752.56c0,9.54-8.2,17.9-17.71,18.1-10.11.2-18.67-8.21-18.54-18.22.13-9.9,7.9-17.89,17.63-18.12,9.92-.24,18.63,8.3,18.62,18.25Z"/>
  <path class="cls-3" d="M1145.66,752.35c.11,9.51-8,18-17.5,18.31-10.07.33-18.77-8.03-18.76-18.01.02-9.87,7.72-17.97,17.42-18.32,9.93-.36,18.71,8.05,18.83,18.03Z"/>
</svg>