<?xml version="1.0" encoding="UTF-8"?>
<svg id="Layer_2" data-name="Layer 2" xmlns="http://www.w3.org/2000/svg" viewBox="0 0 1561.79 733.79">
  <defs>
    <style>
      .cls-1 {
        fill: #ee674a;
        stroke-width: 0px;
      }
    </style>
  </defs>
  <g id="Layer_1-2" data-name="Layer 1">
    <g>
      <path class="cls-1" d="M184,13.72c.29-7.78,7.14-14.13,14.77-13.69,7.78.45,14.08,7.3,13.7,14.9-.39,7.79-7.01,13.79-14.93,13.54-7.93-.25-13.84-6.68-13.54-14.75Z"/>
      <path class="cls-1" d="M320.54,28.47c-7.98-.11-14.02-6.38-13.88-14.42.14-7.83,6.76-14.26,14.44-14.04,7.74.22,14.21,6.94,14.05,14.58-.16,7.74-6.74,13.99-14.61,13.88Z"/>
      <path class="cls-1" d="M351.04,28.47c-7.96-.18-13.93-6.52-13.71-14.58.21-7.81,6.94-14.2,14.6-13.87,7.76.33,14.14,7.11,13.88,14.74-.27,7.77-6.86,13.89-14.76,13.72Z"/>
      <path class="cls-1" d="M381.74,28.47c-7.97-.16-13.95-6.5-13.74-14.55.2-7.81,6.91-14.21,14.57-13.9,7.75.31,14.16,7.09,13.91,14.71-.25,7.76-6.84,13.91-14.74,13.75Z"/>
      <path class="cls-1" d="M443.24,28.47c-7.99-.09-14.04-6.34-13.92-14.38.12-7.84,6.71-14.28,14.4-14.08,7.74.2,14.23,6.89,14.09,14.54-.13,7.74-6.7,14.01-14.57,13.93Z"/>
      <path class="cls-1" d="M627,28.47c-7.95-.19-13.91-6.56-13.68-14.61.22-7.81,6.97-14.19,14.63-13.84,7.76.35,14.13,7.15,13.84,14.77-.29,7.77-6.89,13.87-14.8,13.68Z"/>
      <path class="cls-1" d="M657.73,28.47c-7.97-.16-13.95-6.5-13.74-14.55.2-7.81,6.91-14.21,14.57-13.9,7.75.31,14.16,7.09,13.91,14.71-.25,7.76-6.84,13.91-14.74,13.75Z"/>
      <path class="cls-1" d="M688.39,28.47c-7.97-.16-13.95-6.5-13.74-14.55.2-7.81,6.91-14.21,14.57-13.9,7.75.31,14.16,7.09,13.91,14.71-.25,7.76-6.84,13.91-14.74,13.75Z"/>
      <path class="cls-1" d="M1148.38,28.47c-7.97-.16-13.95-6.5-13.74-14.55.2-7.81,6.91-14.21,14.57-13.9,7.75.31,14.16,7.09,13.91,14.71-.25,7.76-6.84,13.91-14.74,13.75Z"/>
      <path class="cls-1" d="M289.94,59.14c-7.99-.08-14.06-6.33-13.94-14.36.11-7.84,6.68-14.28,14.38-14.11,7.73.18,14.23,6.86,14.12,14.51-.12,7.74-6.68,14.03-14.55,13.95Z"/>
      <path class="cls-1" d="M381.72,59.13c-7.96-.17-13.93-6.51-13.72-14.57.21-7.81,6.93-14.21,14.59-13.88,7.76.33,14.15,7.11,13.89,14.73-.27,7.77-6.86,13.9-14.76,13.73Z"/>
      <path class="cls-1" d="M535.43,59.14c-8.01,0-14.15-6.18-14.11-14.19.04-7.86,6.5-14.34,14.21-14.27,7.71.07,14.28,6.68,14.28,14.35,0,7.73-6.52,14.12-14.38,14.11Z"/>
      <path class="cls-1" d="M565.82,59.14c-7.98-.12-14-6.41-13.84-14.46.16-7.82,6.8-14.25,14.48-14,7.74.25,14.2,6.99,14.01,14.62-.19,7.75-6.77,13.96-14.65,13.84Z"/>
      <path class="cls-1" d="M596.57,59.14c-7.99-.09-14.04-6.34-13.92-14.38.12-7.84,6.71-14.28,14.4-14.08,7.73.2,14.23,6.89,14.09,14.54-.13,7.74-6.7,14.01-14.57,13.93Z"/>
      <path class="cls-1" d="M903.42,59.14c-8.02,0-14.15-6.17-14.11-14.19.04-7.86,6.49-14.34,14.21-14.28,7.71.07,14.29,6.67,14.28,14.35,0,7.73-6.52,14.12-14.38,14.12Z"/>
      <path class="cls-1" d="M934.07,59.14c-8.01-.01-14.14-6.19-14.09-14.21.05-7.85,6.52-14.33,14.23-14.26,7.71.08,14.28,6.7,14.26,14.37-.02,7.73-6.54,14.11-14.4,14.1Z"/>
      <path class="cls-1" d="M1025.8,59.14c-7.98-.13-13.99-6.42-13.82-14.47.16-7.82,6.82-14.24,14.49-13.99,7.74.26,14.19,7,13.99,14.63-.2,7.75-6.78,13.96-14.66,13.83Z"/>
      <path class="cls-1" d="M1056.39,59.13c-7.97-.16-13.95-6.5-13.74-14.55.2-7.81,6.91-14.21,14.57-13.9,7.75.31,14.16,7.09,13.91,14.71-.25,7.76-6.84,13.91-14.74,13.75Z"/>
      <path class="cls-1" d="M167.45,89.8c-8.02,0-14.16-6.16-14.12-14.18.03-7.86,6.48-14.35,14.2-14.29,7.71.06,14.29,6.66,14.29,14.34,0,7.72-6.51,14.13-14.37,14.13Z"/>
      <path class="cls-1" d="M198.12,89.8c-8.02,0-14.16-6.16-14.12-14.18.03-7.86,6.48-14.35,14.2-14.29,7.71.06,14.29,6.66,14.29,14.34,0,7.72-6.51,14.13-14.37,14.13Z"/>
      <path class="cls-1" d="M228.78,89.8c-8.02,0-14.16-6.16-14.12-14.18.03-7.86,6.48-14.35,14.2-14.29,7.71.06,14.29,6.66,14.29,14.34,0,7.72-6.51,14.13-14.37,14.13Z"/>
      <path class="cls-1" d="M320.78,89.8c-8.02,0-14.16-6.16-14.12-14.18.03-7.86,6.48-14.35,14.2-14.29,7.71.06,14.29,6.66,14.29,14.34,0,7.72-6.51,14.13-14.37,14.13Z"/>
      <path class="cls-1" d="M351.45,89.8c-8.02,0-14.16-6.16-14.12-14.18.03-7.86,6.48-14.35,14.2-14.29,7.71.06,14.29,6.66,14.29,14.34,0,7.72-6.51,14.13-14.37,14.13Z"/>
      <path class="cls-1" d="M382.11,89.8c-8.02,0-14.16-6.16-14.12-14.18.03-7.86,6.48-14.35,14.2-14.29,7.71.06,14.29,6.66,14.29,14.34,0,7.72-6.51,14.13-14.37,14.13Z"/>
      <path class="cls-1" d="M535.44,89.8c-8.02,0-14.16-6.16-14.12-14.18.03-7.86,6.48-14.35,14.2-14.29,7.71.06,14.29,6.66,14.29,14.34,0,7.72-6.51,14.13-14.37,14.13Z"/>
      <path class="cls-1" d="M566.11,89.8c-8.02,0-14.16-6.16-14.12-14.18.03-7.86,6.48-14.35,14.2-14.29,7.71.06,14.29,6.66,14.29,14.34,0,7.72-6.51,14.13-14.37,14.13Z"/>
      <path class="cls-1" d="M596.78,89.8c-8.02,0-14.16-6.16-14.12-14.18.03-7.86,6.48-14.35,14.2-14.29,7.71.06,14.29,6.66,14.29,14.34,0,7.72-6.51,14.13-14.37,14.13Z"/>
      <path class="cls-1" d="M811.04,89.8c-7.96-.17-13.93-6.51-13.72-14.57.21-7.81,6.93-14.21,14.59-13.88,7.76.33,14.15,7.11,13.89,14.73-.27,7.77-6.86,13.9-14.76,13.72Z"/>
      <path class="cls-1" d="M841.72,89.8c-7.97-.17-13.94-6.5-13.74-14.56.2-7.81,6.91-14.21,14.58-13.9,7.75.32,14.16,7.09,13.9,14.71-.26,7.76-6.85,13.91-14.74,13.74Z"/>
      <path class="cls-1" d="M872.81,61.34c7.71.04,14.3,6.62,14.32,14.31.02,7.72-6.48,14.14-14.33,14.16-8.02.01-14.17-6.14-14.15-14.15.02-7.86,6.45-14.36,14.17-14.32Z"/>
      <path class="cls-1" d="M1087.4,89.8c-8.01-.01-14.14-6.19-14.1-14.2.05-7.85,6.51-14.34,14.22-14.26,7.71.08,14.28,6.69,14.26,14.36-.02,7.73-6.53,14.11-14.39,14.1Z"/>
      <path class="cls-1" d="M1117.69,89.8c-7.96-.18-13.93-6.53-13.71-14.58.21-7.81,6.94-14.2,14.6-13.87,7.75.33,14.14,7.12,13.87,14.74-.28,7.77-6.87,13.89-14.77,13.71Z"/>
      <path class="cls-1" d="M1148.32,89.8c-7.95-.19-13.91-6.56-13.68-14.61.22-7.8,6.98-14.19,14.63-13.84,7.76.35,14.13,7.15,13.84,14.77-.3,7.77-6.89,13.87-14.8,13.68Z"/>
      <path class="cls-1" d="M1179.42,89.8c-8.02,0-14.15-6.17-14.11-14.19.04-7.86,6.49-14.34,14.21-14.28,7.71.07,14.29,6.67,14.28,14.35,0,7.73-6.52,14.12-14.38,14.12Z"/>
      <path class="cls-1" d="M1224.46,75.75c-.05,7.73-6.58,14.08-14.44,14.05-8.01-.03-14.11-6.23-14.05-14.25.07-7.85,6.56-14.32,14.27-14.21,7.72.11,14.27,6.75,14.22,14.41Z"/>
      <path class="cls-1" d="M1439.12,75.75c-.05,7.73-6.58,14.09-14.44,14.06-8.01-.03-14.12-6.23-14.05-14.25.06-7.85,6.56-14.32,14.27-14.21,7.72.11,14.27,6.75,14.22,14.41Z"/>
      <path class="cls-1" d="M1469.79,75.79c-.07,7.73-6.62,14.06-14.48,14.02-8-.05-14.09-6.26-14.01-14.29.08-7.85,6.61-14.31,14.31-14.17,7.72.14,14.25,6.79,14.18,14.45Z"/>
      <path class="cls-1" d="M136.96,92.01c7.72.13,14.26,6.78,14.19,14.44-.07,7.73-6.6,14.07-14.47,14.03-8-.04-14.1-6.25-14.02-14.28.08-7.85,6.59-14.31,14.3-14.19Z"/>
      <path class="cls-1" d="M167.07,120.47c-7.97-.17-13.94-6.5-13.74-14.56.2-7.81,6.91-14.21,14.58-13.9,7.75.32,14.16,7.09,13.9,14.71-.26,7.76-6.85,13.91-14.74,13.74Z"/>
      <path class="cls-1" d="M197.73,120.47c-7.97-.17-13.94-6.51-13.73-14.56.2-7.81,6.92-14.21,14.58-13.89,7.75.32,14.15,7.1,13.9,14.72-.26,7.77-6.85,13.9-14.75,13.73Z"/>
      <path class="cls-1" d="M228.4,120.47c-7.97-.17-13.94-6.5-13.73-14.56.2-7.81,6.92-14.21,14.58-13.89,7.75.32,14.15,7.1,13.9,14.72-.26,7.77-6.85,13.9-14.75,13.74Z"/>
      <path class="cls-1" d="M259.2,120.47c-7.98-.11-14.02-6.38-13.87-14.43.14-7.83,6.76-14.26,14.45-14.03,7.74.23,14.21,6.95,14.04,14.58-.17,7.74-6.74,13.98-14.62,13.88Z"/>
      <path class="cls-1" d="M289.89,120.47c-7.99-.1-14.03-6.36-13.9-14.4.13-7.83,6.73-14.27,14.42-14.06,7.74.21,14.22,6.92,14.07,14.56-.15,7.74-6.72,14-14.59,13.9Z"/>
      <path class="cls-1" d="M320.23,120.46c-7.93-.24-13.85-6.66-13.56-14.72.27-7.59,6.73-13.82,14.24-13.73,7.91.09,14.6,7.09,14.23,14.89-.37,7.79-6.98,13.8-14.91,13.57Z"/>
      <path class="cls-1" d="M351,120.46c-7.95-.19-13.91-6.56-13.68-14.61.23-7.8,6.98-14.19,14.64-13.84,7.76.36,14.13,7.16,13.84,14.77-.3,7.77-6.89,13.87-14.8,13.68Z"/>
      <path class="cls-1" d="M381.7,120.47c-7.96-.18-13.93-6.52-13.71-14.58.21-7.81,6.94-14.2,14.6-13.87,7.76.33,14.15,7.12,13.87,14.74-.28,7.77-6.87,13.89-14.77,13.71Z"/>
      <path class="cls-1" d="M412.62,120.47c-8-.07-14.07-6.3-13.97-14.33.1-7.84,6.65-14.29,14.35-14.13,7.73.17,14.24,6.84,14.14,14.49-.1,7.74-6.66,14.04-14.53,13.97Z"/>
      <path class="cls-1" d="M457.81,106.45c-.07,7.73-6.61,14.07-14.48,14.02-8-.05-14.1-6.26-14.02-14.28.08-7.85,6.6-14.31,14.3-14.18,7.72.13,14.26,6.78,14.19,14.44Z"/>
      <path class="cls-1" d="M473.88,120.47c-7.98-.1-14.03-6.37-13.89-14.41.13-7.83,6.74-14.27,14.42-14.05,7.74.21,14.22,6.92,14.06,14.56-.15,7.74-6.72,14-14.6,13.9Z"/>
      <path class="cls-1" d="M504.4,120.47c-7.97-.17-13.95-6.5-13.74-14.55.2-7.81,6.91-14.21,14.57-13.9,7.75.31,14.16,7.09,13.91,14.71-.25,7.76-6.84,13.91-14.74,13.74Z"/>
      <path class="cls-1" d="M535.23,120.47c-7.99-.09-14.04-6.35-13.91-14.39.13-7.83,6.72-14.27,14.41-14.07,7.74.2,14.22,6.9,14.08,14.54-.14,7.74-6.71,14.01-14.58,13.92Z"/>
      <path class="cls-1" d="M565.79,120.47c-7.98-.14-13.98-6.44-13.8-14.49.17-7.82,6.84-14.23,14.51-13.97,7.74.27,14.18,7.02,13.97,14.65-.21,7.75-6.79,13.95-14.68,13.81Z"/>
      <path class="cls-1" d="M611.14,106.4c-.04,7.73-6.56,14.09-14.42,14.07-8.01-.02-14.12-6.22-14.07-14.23.06-7.85,6.54-14.33,14.25-14.23,7.71.1,14.27,6.73,14.24,14.39Z"/>
      <path class="cls-1" d="M641.81,106.42c-.05,7.73-6.58,14.08-14.45,14.05-8-.03-14.11-6.23-14.04-14.26.07-7.85,6.57-14.32,14.28-14.21,7.72.11,14.26,6.75,14.21,14.42Z"/>
      <path class="cls-1" d="M657.88,120.47c-7.98-.1-14.03-6.37-13.89-14.41.13-7.83,6.74-14.27,14.42-14.05,7.74.21,14.22,6.92,14.06,14.56-.15,7.74-6.72,14-14.6,13.9Z"/>
      <path class="cls-1" d="M674.65,105.71c.29-7.78,7.14-14.13,14.77-13.69,7.78.45,14.08,7.3,13.7,14.9-.39,7.79-7.01,13.79-14.93,13.54-7.93-.25-13.84-6.68-13.54-14.75Z"/>
      <path class="cls-1" d="M719.08,120.47c-7.97-.16-13.96-6.48-13.76-14.53.19-7.81,6.88-14.22,14.55-13.92,7.75.3,14.17,7.06,13.93,14.69-.24,7.76-6.83,13.92-14.72,13.77Z"/>
      <path class="cls-1" d="M749.88,120.47c-7.98-.1-14.03-6.36-13.89-14.4.13-7.83,6.74-14.27,14.42-14.06,7.74.21,14.22,6.92,14.07,14.56-.15,7.74-6.72,14-14.59,13.9Z"/>
      <path class="cls-1" d="M780.61,120.47c-7.99-.07-14.07-6.31-13.96-14.34.1-7.84,6.66-14.29,14.36-14.12,7.73.17,14.24,6.84,14.13,14.5-.11,7.73-6.66,14.04-14.53,13.97Z"/>
      <path class="cls-1" d="M811.56,92.01c7.71.09,14.28,6.71,14.25,14.38-.03,7.73-6.55,14.1-14.41,14.08-8.01-.02-14.13-6.2-14.08-14.22.05-7.85,6.53-14.33,14.24-14.24Z"/>
      <path class="cls-1" d="M841.66,120.46c-7.95-.19-13.91-6.56-13.68-14.61.22-7.81,6.97-14.19,14.63-13.84,7.76.35,14.13,7.15,13.84,14.77-.29,7.77-6.89,13.87-14.8,13.68Z"/>
      <path class="cls-1" d="M887.14,106.4c-.04,7.73-6.56,14.09-14.42,14.07-8.01-.02-14.12-6.22-14.07-14.23.06-7.85,6.54-14.33,14.25-14.23,7.71.1,14.27,6.73,14.24,14.39Z"/>
      <path class="cls-1" d="M903.26,120.47c-7.99-.08-14.06-6.33-13.94-14.36.11-7.84,6.68-14.28,14.38-14.11,7.73.18,14.23,6.86,14.12,14.51-.12,7.74-6.68,14.03-14.55,13.95Z"/>
      <path class="cls-1" d="M934.11,120.47c-8.02,0-14.16-6.15-14.14-14.16.03-7.86,6.47-14.35,14.18-14.3,7.71.05,14.3,6.65,14.31,14.32,0,7.73-6.5,14.14-14.35,14.14Z"/>
      <path class="cls-1" d="M964.42,120.47c-7.97-.15-13.96-6.47-13.78-14.52.18-7.81,6.87-14.22,14.54-13.94,7.75.29,14.17,7.05,13.94,14.68-.23,7.76-6.82,13.93-14.71,13.78Z"/>
      <path class="cls-1" d="M1009.8,106.45c-.07,7.73-6.61,14.07-14.47,14.02-8-.05-14.1-6.26-14.02-14.28.08-7.85,6.6-14.31,14.3-14.18,7.72.13,14.26,6.78,14.19,14.44Z"/>
      <path class="cls-1" d="M1026.08,120.47c-8.01,0-14.15-6.18-14.11-14.19.04-7.86,6.5-14.34,14.21-14.27,7.71.07,14.28,6.68,14.28,14.35,0,7.73-6.52,14.12-14.38,14.11Z"/>
      <path class="cls-1" d="M1056.42,120.47c-7.97-.15-13.96-6.47-13.78-14.52.18-7.81,6.87-14.22,14.54-13.94,7.75.29,14.17,7.05,13.94,14.68-.23,7.76-6.82,13.93-14.71,13.78Z"/>
      <path class="cls-1" d="M1087.2,120.47c-7.99-.1-14.03-6.36-13.9-14.4.13-7.83,6.73-14.27,14.42-14.06,7.74.21,14.22,6.92,14.07,14.56-.15,7.74-6.72,14-14.59,13.9Z"/>
      <path class="cls-1" d="M1117.8,120.47c-7.98-.13-13.99-6.42-13.82-14.47.16-7.82,6.82-14.24,14.49-13.99,7.74.26,14.19,7,13.99,14.63-.2,7.75-6.78,13.96-14.66,13.83Z"/>
      <path class="cls-1" d="M1148.93,92.01c7.72.12,14.26,6.77,14.2,14.43-.06,7.73-6.59,14.08-14.46,14.04-8-.04-14.11-6.24-14.03-14.27.07-7.85,6.58-14.32,14.29-14.2Z"/>
      <path class="cls-1" d="M1179.21,120.47c-7.99-.09-14.04-6.36-13.9-14.4.13-7.83,6.72-14.27,14.41-14.07,7.74.21,14.22,6.91,14.08,14.55-.14,7.74-6.71,14-14.59,13.91Z"/>
      <path class="cls-1" d="M1195.98,105.71c.29-7.78,7.14-14.13,14.77-13.69,7.78.45,14.08,7.3,13.7,14.9-.39,7.79-7.01,13.79-14.93,13.54-7.93-.25-13.84-6.68-13.54-14.75Z"/>
      <path class="cls-1" d="M1255.13,106.42c-.05,7.73-6.58,14.09-14.44,14.06-8.01-.03-14.12-6.23-14.05-14.25.06-7.85,6.56-14.32,14.27-14.21,7.71.11,14.27,6.75,14.22,14.41Z"/>
      <path class="cls-1" d="M1271.4,120.47c-8.01,0-14.14-6.18-14.1-14.2.04-7.85,6.51-14.34,14.22-14.27,7.71.07,14.28,6.69,14.27,14.36-.01,7.73-6.53,14.12-14.39,14.11Z"/>
      <path class="cls-1" d="M1301.8,120.47c-7.98-.13-13.99-6.42-13.82-14.47.16-7.82,6.81-14.24,14.49-13.99,7.74.26,14.19,7,13.99,14.63-.2,7.75-6.78,13.96-14.66,13.83Z"/>
      <path class="cls-1" d="M1332.54,120.47c-7.99-.09-14.04-6.36-13.9-14.4.13-7.83,6.72-14.27,14.41-14.07,7.74.21,14.22,6.91,14.08,14.55-.14,7.74-6.71,14-14.59,13.91Z"/>
      <path class="cls-1" d="M1363.47,92c7.71.04,14.3,6.62,14.32,14.31.02,7.72-6.48,14.15-14.33,14.16-8.02.01-14.18-6.14-14.16-14.14.02-7.86,6.45-14.36,14.17-14.32Z"/>
      <path class="cls-1" d="M1393.88,120.47c-7.99-.09-14.04-6.35-13.91-14.39.13-7.83,6.72-14.27,14.41-14.07,7.74.2,14.22,6.9,14.08,14.54-.14,7.74-6.71,14.01-14.58,13.92Z"/>
      <path class="cls-1" d="M1547.09,120.47c-7.97-.14-13.97-6.45-13.79-14.5.17-7.82,6.85-14.23,14.52-13.96,7.75.28,14.18,7.03,13.96,14.66-.22,7.75-6.8,13.94-14.69,13.8Z"/>
      <path class="cls-1" d="M136.34,151.13c-7.95-.19-13.91-6.56-13.68-14.61.23-7.81,6.98-14.19,14.64-13.84,7.76.36,14.13,7.16,13.84,14.77-.3,7.77-6.89,13.87-14.8,13.68Z"/>
      <path class="cls-1" d="M167.13,151.13c-7.97-.14-13.98-6.45-13.8-14.5.17-7.82,6.85-14.23,14.52-13.96,7.75.28,14.18,7.03,13.97,14.65-.22,7.75-6.8,13.94-14.69,13.8Z"/>
      <path class="cls-1" d="M197.74,151.13c-7.97-.17-13.95-6.5-13.74-14.55.2-7.81,6.91-14.21,14.57-13.9,7.75.31,14.16,7.09,13.91,14.71-.26,7.76-6.84,13.91-14.74,13.74Z"/>
      <path class="cls-1" d="M228.54,151.14c-7.98-.11-14.02-6.38-13.88-14.42.14-7.83,6.76-14.26,14.44-14.04,7.74.22,14.21,6.94,14.05,14.58-.16,7.74-6.73,13.99-14.61,13.88Z"/>
      <path class="cls-1" d="M259.22,151.14c-7.98-.1-14.03-6.36-13.89-14.4.13-7.83,6.74-14.27,14.42-14.06,7.74.21,14.22,6.92,14.07,14.56-.15,7.74-6.72,14-14.59,13.9Z"/>
      <path class="cls-1" d="M289.85,151.14c-7.98-.11-14.01-6.39-13.86-14.44.15-7.83,6.78-14.26,14.46-14.02,7.74.24,14.2,6.96,14.03,14.59-.17,7.75-6.75,13.98-14.63,13.87Z"/>
      <path class="cls-1" d="M320.43,151.13c-7.97-.15-13.96-6.47-13.77-14.52.19-7.81,6.88-14.22,14.54-13.93,7.75.29,14.17,7.06,13.94,14.68-.23,7.76-6.82,13.93-14.71,13.78Z"/>
      <path class="cls-1" d="M351.27,151.14c-7.99-.08-14.06-6.32-13.95-14.35.11-7.84,6.68-14.29,14.37-14.11,7.73.18,14.24,6.86,14.12,14.51-.12,7.74-6.68,14.03-14.54,13.95Z"/>
      <path class="cls-1" d="M381.78,151.13c-7.97-.15-13.97-6.46-13.78-14.51.18-7.82,6.86-14.23,14.53-13.95,7.75.28,14.17,7.04,13.95,14.67-.22,7.76-6.81,13.93-14.7,13.79Z"/>
      <path class="cls-1" d="M427.15,137.08c-.05,7.73-6.57,14.09-14.44,14.06-8.01-.03-14.12-6.23-14.05-14.25.06-7.85,6.56-14.32,14.27-14.22,7.71.11,14.27,6.75,14.22,14.41Z"/>
      <path class="cls-1" d="M429.33,136.38c.29-7.78,7.14-14.13,14.77-13.69,7.78.45,14.08,7.3,13.7,14.9-.39,7.79-7.01,13.79-14.93,13.54-7.93-.25-13.84-6.68-13.54-14.75Z"/>
      <path class="cls-1" d="M473.77,151.13c-7.97-.15-13.97-6.46-13.78-14.52.18-7.81,6.87-14.23,14.54-13.94,7.75.29,14.17,7.05,13.95,14.67-.23,7.76-6.81,13.93-14.7,13.78Z"/>
      <path class="cls-1" d="M504.34,151.13c-7.95-.19-13.91-6.56-13.68-14.61.22-7.8,6.98-14.19,14.63-13.84,7.76.35,14.13,7.15,13.84,14.77-.3,7.77-6.89,13.87-14.8,13.68Z"/>
      <path class="cls-1" d="M549.81,137.11c-.07,7.73-6.61,14.07-14.47,14.02-8-.05-14.1-6.26-14.02-14.28.08-7.85,6.6-14.31,14.3-14.18,7.72.13,14.26,6.78,14.19,14.44Z"/>
      <path class="cls-1" d="M566.23,122.67c7.71.09,14.28,6.72,14.25,14.38-.03,7.73-6.55,14.1-14.41,14.08-8.01-.02-14.13-6.2-14.08-14.22.05-7.85,6.53-14.33,14.24-14.24Z"/>
      <path class="cls-1" d="M596.71,151.14c-8.01-.03-14.12-6.22-14.06-14.24.06-7.85,6.55-14.32,14.26-14.22,7.71.1,14.27,6.74,14.23,14.4-.04,7.73-6.57,14.09-14.43,14.06Z"/>
      <path class="cls-1" d="M627.38,151.14c-8.01-.03-14.12-6.22-14.06-14.24.06-7.85,6.55-14.32,14.26-14.22,7.71.1,14.27,6.74,14.23,14.4-.04,7.73-6.57,14.09-14.43,14.06Z"/>
      <path class="cls-1" d="M658.04,151.14c-8.01-.03-14.12-6.22-14.06-14.24.06-7.85,6.55-14.32,14.26-14.22,7.71.1,14.27,6.74,14.23,14.4-.04,7.73-6.57,14.09-14.43,14.06Z"/>
      <path class="cls-1" d="M688.71,151.14c-8.01-.03-14.12-6.22-14.06-14.24.06-7.85,6.55-14.32,14.26-14.22,7.71.1,14.27,6.74,14.23,14.4-.04,7.73-6.57,14.09-14.43,14.06Z"/>
      <path class="cls-1" d="M719.38,151.14c-8.01-.03-14.12-6.22-14.06-14.24.06-7.85,6.55-14.32,14.26-14.22,7.71.1,14.27,6.74,14.23,14.4-.04,7.73-6.57,14.09-14.43,14.06Z"/>
      <path class="cls-1" d="M750.04,151.14c-8.01-.03-14.12-6.22-14.06-14.24.06-7.85,6.55-14.32,14.26-14.22,7.71.1,14.27,6.74,14.23,14.4-.04,7.73-6.57,14.09-14.43,14.06Z"/>
      <path class="cls-1" d="M780.71,151.14c-8.01-.03-14.12-6.22-14.06-14.24.06-7.85,6.55-14.32,14.26-14.22,7.71.1,14.27,6.74,14.23,14.4-.04,7.73-6.57,14.09-14.43,14.06Z"/>
      <path class="cls-1" d="M995.37,151.14c-8.01-.03-14.12-6.22-14.06-14.24.06-7.85,6.55-14.32,14.26-14.22,7.71.1,14.27,6.74,14.23,14.4-.04,7.73-6.57,14.09-14.43,14.06Z"/>
      <path class="cls-1" d="M1026.03,151.14c-8.01-.03-14.12-6.22-14.06-14.24.06-7.85,6.55-14.32,14.26-14.22,7.71.1,14.27,6.74,14.23,14.4-.04,7.73-6.57,14.09-14.43,14.06Z"/>
      <path class="cls-1" d="M1056.88,122.67c7.71.09,14.28,6.71,14.25,14.38-.03,7.73-6.55,14.1-14.41,14.08-8.01-.02-14.13-6.2-14.08-14.22.05-7.85,6.53-14.33,14.24-14.24Z"/>
      <path class="cls-1" d="M1087.43,151.14c-8.02,0-14.16-6.16-14.12-14.18.03-7.86,6.48-14.35,14.2-14.29,7.71.06,14.29,6.66,14.29,14.34,0,7.73-6.51,14.13-14.37,14.13Z"/>
      <path class="cls-1" d="M1132.46,137.11c-.07,7.73-6.61,14.07-14.47,14.02-8-.05-14.1-6.26-14.02-14.28.08-7.85,6.6-14.31,14.3-14.18,7.72.13,14.25,6.78,14.19,14.44Z"/>
      <path class="cls-1" d="M1148.43,151.13c-7.97-.14-13.97-6.45-13.79-14.5.18-7.82,6.85-14.23,14.52-13.95,7.74.28,14.18,7.03,13.96,14.66-.22,7.76-6.8,13.94-14.69,13.8Z"/>
      <path class="cls-1" d="M1179.12,151.13c-7.98-.14-13.98-6.44-13.81-14.49.17-7.82,6.84-14.24,14.51-13.97,7.75.27,14.18,7.01,13.98,14.64-.21,7.75-6.79,13.95-14.68,13.81Z"/>
      <path class="cls-1" d="M1209.88,151.14c-7.99-.09-14.04-6.35-13.91-14.39.13-7.83,6.72-14.27,14.41-14.07,7.73.2,14.22,6.9,14.08,14.54-.14,7.74-6.71,14.01-14.58,13.92Z"/>
      <path class="cls-1" d="M1240.53,151.14c-7.99-.1-14.03-6.37-13.9-14.4.13-7.83,6.73-14.27,14.42-14.06,7.74.21,14.22,6.92,14.07,14.56-.15,7.74-6.72,14-14.59,13.9Z"/>
      <path class="cls-1" d="M1271.14,151.13c-7.98-.12-14-6.41-13.84-14.46.16-7.82,6.8-14.25,14.48-14,7.74.25,14.2,6.99,14.01,14.62-.19,7.75-6.77,13.96-14.65,13.84Z"/>
      <path class="cls-1" d="M1301.74,151.13c-7.97-.15-13.96-6.47-13.77-14.52.19-7.81,6.88-14.22,14.54-13.93,7.75.29,14.17,7.06,13.94,14.68-.23,7.76-6.82,13.93-14.71,13.78Z"/>
      <path class="cls-1" d="M1363.02,151.13c-7.96-.18-13.93-6.52-13.71-14.58.21-7.81,6.94-14.2,14.6-13.88,7.76.33,14.15,7.12,13.88,14.74-.27,7.77-6.86,13.89-14.76,13.72Z"/>
      <path class="cls-1" d="M1394.13,122.67c7.71.04,14.3,6.62,14.32,14.31.02,7.72-6.48,14.15-14.33,14.16-8.02.01-14.18-6.14-14.16-14.14.02-7.86,6.45-14.36,14.17-14.32Z"/>
      <path class="cls-1" d="M30.67,167.05c.29-7.78,7.14-14.13,14.77-13.69,7.78.45,14.08,7.3,13.7,14.9-.39,7.79-7.01,13.79-14.93,13.54-7.93-.25-13.84-6.68-13.54-14.75Z"/>
      <path class="cls-1" d="M136.61,181.8c-7.99-.08-14.06-6.32-13.94-14.36.11-7.84,6.68-14.29,14.37-14.11,7.73.18,14.23,6.86,14.12,14.51-.12,7.74-6.68,14.03-14.55,13.95Z"/>
      <path class="cls-1" d="M198.15,181.8c-8.02.02-14.18-6.13-14.16-14.14.02-7.86,6.44-14.36,14.16-14.32,7.71.04,14.3,6.62,14.33,14.3.03,7.72-6.48,14.15-14.33,14.16Z"/>
      <path class="cls-1" d="M228.43,181.8c-7.97-.15-13.96-6.47-13.77-14.52.19-7.81,6.88-14.22,14.54-13.93,7.75.29,14.17,7.06,13.94,14.68-.23,7.76-6.82,13.93-14.71,13.78Z"/>
      <path class="cls-1" d="M259.22,181.8c-7.98-.1-14.03-6.36-13.89-14.4.13-7.83,6.74-14.27,14.42-14.06,7.74.21,14.22,6.92,14.07,14.56-.15,7.74-6.72,14-14.59,13.9Z"/>
      <path class="cls-1" d="M304.48,167.78c-.07,7.73-6.61,14.07-14.48,14.02-8-.05-14.1-6.26-14.02-14.28.08-7.85,6.6-14.31,14.3-14.18,7.72.13,14.26,6.78,14.19,14.44Z"/>
      <path class="cls-1" d="M320.54,181.8c-7.98-.1-14.02-6.37-13.88-14.42.14-7.83,6.75-14.26,14.43-14.05,7.74.22,14.21,6.93,14.06,14.57-.16,7.74-6.73,13.99-14.61,13.89Z"/>
      <path class="cls-1" d="M1240.74,181.8c-8.01,0-14.15-6.18-14.11-14.19.04-7.86,6.5-14.34,14.21-14.27,7.71.07,14.28,6.68,14.28,14.35,0,7.73-6.52,14.12-14.38,14.11Z"/>
      <path class="cls-1" d="M1393.75,181.8c-7.97-.15-13.97-6.46-13.78-14.52.18-7.81,6.87-14.23,14.54-13.94,7.75.29,14.17,7.05,13.95,14.67-.23,7.76-6.81,13.93-14.7,13.78Z"/>
      <path class="cls-1" d="M1455.13,181.8c-7.98-.12-14-6.42-13.83-14.46.16-7.82,6.8-14.25,14.48-14,7.74.25,14.19,6.99,14,14.62-.19,7.75-6.77,13.96-14.65,13.84Z"/>
      <path class="cls-1" d="M1485.76,181.8c-7.97-.14-13.98-6.45-13.8-14.5.17-7.82,6.85-14.23,14.52-13.96,7.75.28,14.18,7.03,13.96,14.65-.22,7.75-6.8,13.94-14.69,13.8Z"/>
      <path class="cls-1" d="M105.68,212.46c-7.95-.19-13.91-6.56-13.68-14.61.23-7.81,6.98-14.19,14.64-13.84,7.76.36,14.13,7.16,13.84,14.77-.3,7.77-6.89,13.87-14.8,13.68Z"/>
      <path class="cls-1" d="M136.49,212.47c-7.98-.13-13.99-6.42-13.83-14.47.16-7.82,6.81-14.24,14.49-13.99,7.74.26,14.19,6.99,14,14.63-.2,7.75-6.78,13.96-14.66,13.83Z"/>
      <path class="cls-1" d="M167.03,212.46c-7.96-.18-13.92-6.54-13.69-14.6.22-7.81,6.96-14.2,14.62-13.85,7.76.35,14.14,7.14,13.86,14.75-.29,7.77-6.88,13.88-14.78,13.7Z"/>
      <path class="cls-1" d="M259.24,212.47c-7.99-.09-14.04-6.35-13.91-14.39.13-7.83,6.72-14.27,14.41-14.07,7.74.2,14.22,6.9,14.08,14.54-.14,7.74-6.71,14.01-14.58,13.92Z"/>
      <path class="cls-1" d="M1118.23,212.47c-8.03.06-14.23-6.05-14.26-14.04-.02-7.87,6.34-14.39,14.06-14.42,7.7-.03,14.33,6.5,14.42,14.21.09,7.71-6.39,14.2-14.23,14.26Z"/>
      <path class="cls-1" d="M1271.05,212.46c-7.97-.16-13.95-6.5-13.74-14.55.2-7.81,6.91-14.21,14.57-13.9,7.75.31,14.16,7.09,13.91,14.71-.25,7.76-6.84,13.91-14.74,13.75Z"/>
      <path class="cls-1" d="M1363.04,212.46c-7.97-.16-13.95-6.5-13.74-14.55.2-7.81,6.91-14.21,14.57-13.9,7.75.31,14.16,7.09,13.91,14.71-.25,7.76-6.84,13.91-14.74,13.75Z"/>
      <path class="cls-1" d="M1393.71,212.46c-7.97-.16-13.95-6.5-13.74-14.55.2-7.81,6.91-14.21,14.57-13.9,7.75.31,14.16,7.09,13.91,14.71-.25,7.76-6.84,13.91-14.74,13.75Z"/>
      <path class="cls-1" d="M1485.53,212.46c-7.93-.24-13.85-6.66-13.56-14.72.27-7.59,6.73-13.82,14.24-13.73,7.91.09,14.6,7.09,14.23,14.89-.37,7.79-6.98,13.8-14.91,13.57Z"/>
      <path class="cls-1" d="M75.18,243.13c-7.98-.12-14-6.41-13.85-14.45.15-7.82,6.79-14.25,14.47-14.01,7.74.24,14.2,6.97,14.02,14.61-.18,7.75-6.76,13.97-14.64,13.85Z"/>
      <path class="cls-1" d="M136.94,214.67c7.72.11,14.27,6.75,14.22,14.41-.05,7.73-6.58,14.08-14.44,14.05-8.01-.03-14.11-6.23-14.05-14.25.07-7.85,6.57-14.32,14.27-14.21Z"/>
      <path class="cls-1" d="M167.29,243.13c-7.99-.07-14.07-6.31-13.96-14.34.1-7.84,6.66-14.29,14.36-14.12,7.73.17,14.24,6.84,14.13,14.5-.11,7.73-6.66,14.04-14.53,13.97Z"/>
      <path class="cls-1" d="M228.62,243.13c-7.99-.07-14.07-6.31-13.96-14.34.1-7.84,6.66-14.29,14.36-14.12,7.73.17,14.24,6.84,14.13,14.5-.11,7.73-6.66,14.04-14.53,13.97Z"/>
      <path class="cls-1" d="M381.67,243.13c-7.95-.19-13.91-6.56-13.68-14.61.23-7.81,6.98-14.19,14.64-13.84,7.76.35,14.13,7.15,13.84,14.77-.3,7.77-6.89,13.87-14.8,13.68Z"/>
      <path class="cls-1" d="M1271.13,243.13c-7.98-.13-13.99-6.42-13.83-14.47.16-7.82,6.81-14.24,14.49-13.99,7.74.26,14.19,6.99,14,14.63-.2,7.75-6.78,13.96-14.66,13.83Z"/>
      <path class="cls-1" d="M1301.88,243.13c-7.99-.09-14.04-6.35-13.91-14.39.13-7.83,6.72-14.27,14.41-14.07,7.74.2,14.22,6.9,14.08,14.54-.14,7.74-6.71,14.01-14.58,13.92Z"/>
      <path class="cls-1" d="M1363.56,214.67c7.71.1,14.27,6.73,14.24,14.39-.04,7.73-6.56,14.09-14.42,14.07-8.01-.02-14.12-6.21-14.07-14.23.06-7.85,6.54-14.33,14.25-14.23Z"/>
      <path class="cls-1" d="M1393.74,243.13c-7.97-.15-13.96-6.47-13.78-14.52.18-7.81,6.87-14.22,14.54-13.94,7.75.29,14.17,7.05,13.94,14.68-.23,7.76-6.82,13.93-14.71,13.78Z"/>
      <path class="cls-1" d="M1410.64,228.38c.29-7.78,7.14-14.13,14.77-13.69,7.78.45,14.08,7.3,13.7,14.9-.39,7.79-7.01,13.79-14.93,13.54-7.93-.25-13.84-6.68-13.54-14.75Z"/>
      <path class="cls-1" d="M136.99,245.34c7.73.15,14.25,6.81,14.17,14.46-.09,7.73-6.63,14.05-14.5,14-8-.06-14.08-6.28-13.99-14.31.09-7.84,6.62-14.3,14.33-14.16Z"/>
      <path class="cls-1" d="M167.04,273.79c-7.96-.18-13.93-6.53-13.71-14.58.21-7.81,6.94-14.2,14.6-13.87,7.75.33,14.14,7.12,13.87,14.74-.28,7.77-6.87,13.89-14.77,13.71Z"/>
      <path class="cls-1" d="M259.44,273.8c-8.01,0-14.15-6.18-14.11-14.19.04-7.86,6.5-14.34,14.21-14.27,7.71.07,14.28,6.68,14.28,14.35,0,7.73-6.52,14.12-14.38,14.11Z"/>
      <path class="cls-1" d="M1301.68,273.79c-7.96-.18-13.93-6.53-13.71-14.59.21-7.81,6.95-14.2,14.61-13.87,7.76.34,14.14,7.13,13.87,14.74-.28,7.77-6.87,13.89-14.77,13.71Z"/>
      <path class="cls-1" d="M1363.46,273.8c-8.02.02-14.18-6.13-14.16-14.14.02-7.86,6.44-14.36,14.16-14.32,7.71.04,14.3,6.62,14.33,14.3.03,7.72-6.48,14.15-14.33,14.16Z"/>
      <path class="cls-1" d="M1393.71,273.8c-7.97-.16-13.95-6.5-13.74-14.55.2-7.81,6.91-14.21,14.57-13.9,7.75.31,14.16,7.09,13.91,14.71-.25,7.76-6.84,13.91-14.74,13.75Z"/>
      <path class="cls-1" d="M44.82,304.46c-8.02.02-14.18-6.13-14.16-14.14.02-7.86,6.44-14.36,14.16-14.32,7.71.04,14.3,6.62,14.33,14.3.03,7.72-6.48,14.15-14.33,14.16Z"/>
      <path class="cls-1" d="M106.16,304.46c-8.02.02-14.18-6.13-14.16-14.14.02-7.86,6.44-14.36,14.16-14.32,7.71.04,14.3,6.62,14.33,14.3.03,7.72-6.48,14.15-14.33,14.16Z"/>
      <path class="cls-1" d="M136.82,304.46c-8.02.02-14.18-6.13-14.16-14.14.02-7.86,6.44-14.36,14.16-14.32,7.71.04,14.3,6.62,14.33,14.3.03,7.72-6.48,14.15-14.33,14.16Z"/>
      <path class="cls-1" d="M167.49,304.46c-8.02.02-14.18-6.13-14.16-14.14.02-7.86,6.44-14.36,14.16-14.32,7.71.04,14.3,6.62,14.33,14.3.03,7.72-6.48,14.15-14.33,14.16Z"/>
      <path class="cls-1" d="M1363.54,276c7.71.09,14.28,6.71,14.25,14.38-.03,7.73-6.55,14.1-14.41,14.08-8.01-.02-14.13-6.2-14.08-14.22.05-7.85,6.53-14.33,14.24-14.24Z"/>
      <path class="cls-1" d="M1408.46,290.4c-.04,7.73-6.57,14.09-14.43,14.06-8.01-.03-14.12-6.22-14.06-14.24.06-7.85,6.55-14.33,14.26-14.22,7.71.1,14.27,6.74,14.23,14.4Z"/>
      <path class="cls-1" d="M1455.46,304.46c-8.02.02-14.18-6.13-14.16-14.14.02-7.86,6.44-14.36,14.16-14.32,7.71.04,14.3,6.62,14.33,14.3.03,7.72-6.48,14.15-14.33,14.16Z"/>
      <path class="cls-1" d="M1547.23,304.47c-7.99-.08-14.05-6.33-13.94-14.36.11-7.84,6.69-14.28,14.38-14.1,7.73.18,14.23,6.87,14.11,14.52-.12,7.74-6.69,14.02-14.56,13.94Z"/>
      <path class="cls-1" d="M61.34,320.37c.29-7.78,7.14-14.13,14.77-13.69,7.78.45,14.08,7.3,13.7,14.9-.39,7.79-7.01,13.79-14.93,13.54-7.93-.25-13.84-6.68-13.54-14.75Z"/>
      <path class="cls-1" d="M136.46,335.13c-7.97-.14-13.97-6.45-13.79-14.5.18-7.82,6.85-14.23,14.52-13.96,7.74.28,14.18,7.03,13.96,14.66-.22,7.76-6.8,13.94-14.69,13.8Z"/>
      <path class="cls-1" d="M167.39,335.13c-8.01-.03-14.12-6.22-14.06-14.24.06-7.85,6.55-14.32,14.26-14.22,7.71.1,14.27,6.74,14.23,14.4-.04,7.73-6.57,14.09-14.43,14.06Z"/>
      <path class="cls-1" d="M1240.53,335.13c-7.98-.1-14.03-6.37-13.89-14.41.13-7.83,6.74-14.27,14.42-14.05,7.74.21,14.22,6.92,14.06,14.56-.15,7.74-6.72,14-14.6,13.9Z"/>
      <path class="cls-1" d="M1363.04,335.13c-7.97-.17-13.94-6.5-13.73-14.56.2-7.81,6.92-14.21,14.58-13.89,7.75.32,14.15,7.1,13.9,14.72-.26,7.77-6.85,13.9-14.75,13.74Z"/>
      <path class="cls-1" d="M1408.46,321.11c-.07,7.73-6.61,14.07-14.47,14.02-8-.05-14.1-6.26-14.02-14.28.08-7.85,6.6-14.31,14.3-14.18,7.72.13,14.25,6.78,14.19,14.44Z"/>
      <path class="cls-1" d="M1424.59,335.13c-7.99-.07-14.07-6.31-13.96-14.34.1-7.84,6.66-14.29,14.36-14.12,7.73.17,14.24,6.84,14.13,14.5-.11,7.73-6.66,14.04-14.53,13.97Z"/>
      <path class="cls-1" d="M44.35,365.79c-7.95-.19-13.91-6.56-13.68-14.61.22-7.81,6.97-14.19,14.63-13.84,7.76.35,14.13,7.15,13.84,14.77-.29,7.77-6.89,13.87-14.8,13.68Z"/>
      <path class="cls-1" d="M105.71,365.79c-7.96-.18-13.93-6.53-13.71-14.59.21-7.81,6.95-14.2,14.61-13.87,7.76.34,14.14,7.13,13.87,14.74-.28,7.77-6.87,13.89-14.77,13.71Z"/>
      <path class="cls-1" d="M136.63,365.8c-8-.07-14.07-6.3-13.97-14.33.1-7.84,6.65-14.29,14.35-14.13,7.73.16,14.24,6.83,14.14,14.49-.1,7.74-6.65,14.04-14.52,13.98Z"/>
      <path class="cls-1" d="M167.1,365.79c-7.97-.15-13.96-6.47-13.77-14.52.19-7.81,6.88-14.22,14.54-13.93,7.75.29,14.17,7.06,13.94,14.68-.23,7.76-6.82,13.93-14.71,13.78Z"/>
      <path class="cls-1" d="M1363.24,365.8c-7.99-.08-14.06-6.33-13.94-14.36.11-7.84,6.68-14.29,14.38-14.11,7.73.18,14.23,6.86,14.12,14.51-.12,7.74-6.68,14.03-14.55,13.95Z"/>
      <path class="cls-1" d="M1393.91,365.8c-7.99-.08-14.06-6.32-13.94-14.36.11-7.84,6.68-14.29,14.37-14.11,7.73.18,14.23,6.86,14.12,14.51-.12,7.74-6.68,14.03-14.55,13.95Z"/>
      <path class="cls-1" d="M1455.16,365.8c-7.98-.11-14.01-6.39-13.86-14.44.15-7.83,6.78-14.26,14.46-14.02,7.74.24,14.2,6.96,14.03,14.59-.17,7.75-6.75,13.98-14.63,13.87Z"/>
      <path class="cls-1" d="M1547.17,365.8c-7.98-.11-14.02-6.38-13.88-14.42.14-7.83,6.76-14.26,14.44-14.04,7.74.22,14.21,6.94,14.05,14.58-.16,7.74-6.73,13.99-14.61,13.88Z"/>
      <path class="cls-1" d="M28.49,382.44c-.07,7.73-6.61,14.07-14.47,14.02-8-.05-14.1-6.26-14.02-14.28.08-7.85,6.6-14.31,14.3-14.18,7.72.13,14.25,6.78,14.19,14.44Z"/>
      <path class="cls-1" d="M59.16,382.41c-.05,7.73-6.58,14.08-14.44,14.05-8.01-.03-14.11-6.23-14.05-14.25.07-7.85,6.56-14.32,14.27-14.21,7.71.11,14.27,6.75,14.22,14.41Z"/>
      <path class="cls-1" d="M120.49,382.41c-.05,7.73-6.58,14.08-14.44,14.05-8.01-.03-14.11-6.23-14.05-14.25.07-7.85,6.56-14.32,14.27-14.21,7.72.11,14.27,6.75,14.22,14.41Z"/>
      <path class="cls-1" d="M136.35,396.46c-7.95-.19-13.91-6.56-13.68-14.61.22-7.81,6.97-14.19,14.63-13.84,7.76.35,14.13,7.15,13.84,14.77-.3,7.77-6.89,13.87-14.8,13.68Z"/>
      <path class="cls-1" d="M167.42,396.46c-8.01-.01-14.14-6.19-14.09-14.21.05-7.85,6.51-14.34,14.23-14.26,7.71.08,14.28,6.69,14.26,14.37-.02,7.73-6.53,14.11-14.4,14.1Z"/>
      <path class="cls-1" d="M228.44,396.46c-7.97-.15-13.96-6.47-13.78-14.52.18-7.81,6.87-14.22,14.54-13.94,7.75.29,14.17,7.05,13.94,14.68-.23,7.76-6.82,13.93-14.71,13.78Z"/>
      <path class="cls-1" d="M1332.89,368c7.71.1,14.27,6.73,14.24,14.39-.04,7.73-6.56,14.09-14.42,14.07-8.01-.02-14.12-6.21-14.07-14.23.06-7.85,6.54-14.33,14.25-14.23Z"/>
      <path class="cls-1" d="M1363.03,396.46c-7.97-.17-13.94-6.51-13.73-14.56.2-7.81,6.92-14.21,14.58-13.89,7.75.32,14.15,7.1,13.89,14.72-.26,7.77-6.85,13.9-14.75,13.73Z"/>
      <path class="cls-1" d="M1393.91,396.46c-7.99-.08-14.06-6.32-13.94-14.36.11-7.84,6.68-14.29,14.37-14.11,7.73.18,14.23,6.86,14.12,14.51-.12,7.74-6.68,14.03-14.55,13.95Z"/>
      <path class="cls-1" d="M105.68,427.12c-7.95-.19-13.91-6.56-13.68-14.61.22-7.8,6.98-14.19,14.63-13.84,7.76.35,14.13,7.15,13.84,14.77-.3,7.77-6.89,13.87-14.8,13.68Z"/>
      <path class="cls-1" d="M136.41,427.13c-7.97-.16-13.95-6.5-13.74-14.55.2-7.81,6.91-14.21,14.57-13.9,7.75.31,14.16,7.09,13.91,14.71-.25,7.76-6.84,13.91-14.74,13.75Z"/>
      <path class="cls-1" d="M167.01,427.12c-7.95-.19-13.91-6.56-13.68-14.61.23-7.8,6.98-14.19,14.64-13.84,7.76.35,14.13,7.15,13.84,14.77-.3,7.77-6.89,13.87-14.8,13.68Z"/>
      <path class="cls-1" d="M1363.15,427.13c-7.98-.12-14-6.41-13.85-14.45.15-7.82,6.79-14.25,14.47-14.01,7.74.24,14.2,6.97,14.02,14.61-.18,7.75-6.76,13.97-14.64,13.85Z"/>
      <path class="cls-1" d="M1393.64,427.12c-7.95-.2-13.9-6.57-13.67-14.62.23-7.8,6.99-14.19,14.65-13.83,7.76.36,14.13,7.17,13.83,14.78-.3,7.77-6.9,13.86-14.81,13.67Z"/>
      <path class="cls-1" d="M1455.15,427.13c-7.98-.12-14.01-6.4-13.85-14.44.15-7.83,6.78-14.25,14.46-14.02,7.74.24,14.2,6.96,14.03,14.6-.18,7.75-6.75,13.97-14.63,13.86Z"/>
      <path class="cls-1" d="M44.76,457.79c-8.01-.01-14.14-6.19-14.09-14.21.05-7.85,6.51-14.34,14.23-14.26,7.71.08,14.28,6.7,14.26,14.37-.02,7.73-6.54,14.11-14.4,14.1Z"/>
      <path class="cls-1" d="M75.57,429.33c7.71.08,14.28,6.71,14.25,14.38-.02,7.73-6.55,14.11-14.41,14.09-8.01-.02-14.14-6.2-14.08-14.22.05-7.85,6.52-14.33,14.24-14.25Z"/>
      <path class="cls-1" d="M105.71,457.79c-7.96-.18-13.93-6.53-13.71-14.59.21-7.81,6.95-14.2,14.61-13.87,7.76.34,14.14,7.13,13.87,14.74-.28,7.77-6.87,13.89-14.77,13.71Z"/>
      <path class="cls-1" d="M136.23,457.79c-7.93-.24-13.85-6.66-13.56-14.72.27-7.59,6.73-13.82,14.24-13.73,7.91.09,14.6,7.09,14.23,14.89-.37,7.79-6.99,13.8-14.91,13.57Z"/>
      <path class="cls-1" d="M167.11,457.79c-7.97-.15-13.97-6.46-13.78-14.52.18-7.81,6.87-14.23,14.54-13.94,7.75.29,14.17,7.05,13.95,14.67-.23,7.76-6.81,13.93-14.7,13.78Z"/>
      <path class="cls-1" d="M1363.02,457.79c-7.96-.18-13.93-6.52-13.71-14.58.21-7.81,6.94-14.2,14.6-13.88,7.76.33,14.15,7.12,13.88,14.74-.27,7.77-6.86,13.89-14.76,13.72Z"/>
      <path class="cls-1" d="M1393.66,457.79c-7.95-.19-13.92-6.55-13.69-14.6.22-7.81,6.97-14.19,14.62-13.85,7.76.35,14.14,7.14,13.85,14.76-.29,7.77-6.88,13.88-14.79,13.69Z"/>
      <path class="cls-1" d="M75.06,488.46c-7.96-.17-13.93-6.51-13.72-14.57.21-7.81,6.93-14.21,14.59-13.88,7.76.33,14.15,7.11,13.89,14.73-.27,7.77-6.86,13.9-14.76,13.72Z"/>
      <path class="cls-1" d="M136.76,488.46c-8.01-.01-14.14-6.19-14.09-14.21.05-7.85,6.51-14.34,14.23-14.26,7.71.08,14.28,6.7,14.26,14.37-.02,7.73-6.54,14.11-14.4,14.1Z"/>
      <path class="cls-1" d="M167.04,488.46c-7.96-.18-13.93-6.52-13.71-14.58.21-7.81,6.94-14.2,14.6-13.87,7.76.33,14.14,7.12,13.87,14.74-.28,7.77-6.87,13.89-14.77,13.71Z"/>
      <path class="cls-1" d="M1363.04,488.46c-7.97-.16-13.95-6.5-13.74-14.55.2-7.81,6.91-14.21,14.57-13.9,7.75.31,14.16,7.09,13.91,14.71-.25,7.76-6.84,13.91-14.74,13.75Z"/>
      <path class="cls-1" d="M1393.89,488.46c-7.99-.09-14.04-6.35-13.92-14.38.12-7.84,6.71-14.28,14.4-14.08,7.73.2,14.23,6.89,14.09,14.54-.13,7.74-6.7,14.01-14.57,13.93Z"/>
      <path class="cls-1" d="M1455.18,488.46c-7.98-.11-14.02-6.38-13.88-14.42.14-7.83,6.76-14.26,14.44-14.04,7.74.22,14.21,6.94,14.05,14.58-.16,7.74-6.73,13.99-14.61,13.88Z"/>
      <path class="cls-1" d="M75.17,519.13c-7.98-.12-14-6.42-13.83-14.46.16-7.82,6.8-14.25,14.48-14,7.74.25,14.19,6.99,14,14.62-.19,7.75-6.77,13.96-14.65,13.84Z"/>
      <path class="cls-1" d="M136.45,519.12c-7.97-.15-13.97-6.46-13.78-14.52.18-7.81,6.87-14.23,14.54-13.94,7.75.29,14.17,7.05,13.95,14.67-.23,7.76-6.81,13.93-14.7,13.78Z"/>
      <path class="cls-1" d="M167.05,519.12c-7.96-.17-13.93-6.51-13.72-14.57.21-7.81,6.93-14.21,14.59-13.88,7.76.33,14.15,7.11,13.89,14.73-.27,7.77-6.86,13.9-14.76,13.72Z"/>
      <path class="cls-1" d="M197.97,519.13c-8-.07-14.07-6.3-13.97-14.33.1-7.84,6.65-14.29,14.35-14.13,7.73.16,14.24,6.83,14.14,14.49-.1,7.74-6.65,14.04-14.52,13.98Z"/>
      <path class="cls-1" d="M1302.09,519.13c-8.02,0-14.16-6.16-14.12-14.18.03-7.86,6.48-14.35,14.2-14.29,7.71.06,14.29,6.66,14.29,14.34,0,7.72-6.51,14.13-14.37,14.13Z"/>
      <path class="cls-1" d="M1363.42,519.13c-8.02,0-14.16-6.16-14.12-14.18.03-7.86,6.48-14.35,14.2-14.29,7.71.06,14.29,6.66,14.29,14.34,0,7.72-6.51,14.13-14.37,14.13Z"/>
      <path class="cls-1" d="M1394.24,490.66c7.72.11,14.27,6.75,14.22,14.41-.05,7.73-6.58,14.08-14.44,14.05-8.01-.03-14.11-6.23-14.05-14.25.07-7.85,6.57-14.32,14.27-14.21Z"/>
      <path class="cls-1" d="M14.33,521.33c7.73.15,14.25,6.81,14.17,14.46-.09,7.73-6.63,14.05-14.5,14-8-.06-14.08-6.28-13.99-14.31.09-7.84,6.62-14.3,14.33-14.16Z"/>
      <path class="cls-1" d="M75.27,549.79c-7.99-.08-14.05-6.33-13.94-14.36.11-7.84,6.69-14.28,14.38-14.1,7.73.18,14.23,6.87,14.11,14.52-.12,7.74-6.68,14.02-14.55,13.94Z"/>
      <path class="cls-1" d="M136.47,549.79c-7.98-.14-13.98-6.44-13.81-14.49.17-7.82,6.84-14.24,14.51-13.97,7.75.27,14.18,7.01,13.98,14.64-.21,7.75-6.79,13.95-14.68,13.81Z"/>
      <path class="cls-1" d="M167.22,549.79c-7.98-.1-14.03-6.37-13.89-14.41.14-7.83,6.75-14.27,14.43-14.05,7.74.22,14.21,6.93,14.06,14.57-.16,7.74-6.73,13.99-14.6,13.89Z"/>
      <path class="cls-1" d="M1302.06,549.79c-8.01-.01-14.14-6.19-14.1-14.2.05-7.85,6.51-14.34,14.22-14.26,7.71.08,14.28,6.69,14.26,14.36-.02,7.73-6.53,14.11-14.39,14.1Z"/>
      <path class="cls-1" d="M1363.11,549.79c-7.98-.14-13.98-6.44-13.81-14.49.17-7.82,6.84-14.24,14.51-13.97,7.75.27,14.18,7.01,13.98,14.64-.21,7.75-6.79,13.95-14.68,13.81Z"/>
      <path class="cls-1" d="M1393.82,549.79c-7.98-.12-14.01-6.4-13.85-14.44.15-7.83,6.78-14.25,14.46-14.02,7.74.24,14.2,6.96,14.03,14.6-.18,7.75-6.75,13.97-14.63,13.86Z"/>
      <path class="cls-1" d="M1485.68,549.79c-7.96-.18-13.93-6.52-13.71-14.58.21-7.81,6.94-14.2,14.6-13.87,7.76.33,14.14,7.11,13.88,14.74-.27,7.77-6.86,13.89-14.76,13.72Z"/>
      <path class="cls-1" d="M136.36,580.45c-7.96-.18-13.92-6.54-13.69-14.6.22-7.81,6.96-14.2,14.62-13.86,7.76.35,14.14,7.14,13.86,14.75-.29,7.77-6.88,13.88-14.78,13.7Z"/>
      <path class="cls-1" d="M167.07,580.45c-7.97-.17-13.95-6.5-13.74-14.55.2-7.81,6.91-14.21,14.57-13.9,7.75.31,14.16,7.09,13.91,14.71-.25,7.76-6.84,13.91-14.74,13.74Z"/>
      <path class="cls-1" d="M197.69,580.45c-7.95-.18-13.92-6.54-13.69-14.6.22-7.81,6.96-14.2,14.62-13.85,7.76.35,14.14,7.14,13.86,14.75-.29,7.77-6.88,13.88-14.78,13.7Z"/>
      <path class="cls-1" d="M1302.06,580.46c-8.01-.01-14.14-6.19-14.09-14.21.05-7.85,6.51-14.34,14.23-14.26,7.71.08,14.28,6.69,14.26,14.37-.02,7.73-6.53,14.11-14.4,14.1Z"/>
      <path class="cls-1" d="M1377.79,566.44c-.07,7.73-6.61,14.07-14.48,14.02-8-.05-14.1-6.26-14.02-14.28.08-7.85,6.6-14.31,14.3-14.18,7.72.13,14.26,6.78,14.19,14.44Z"/>
      <path class="cls-1" d="M1393.68,580.45c-7.96-.18-13.93-6.52-13.71-14.58.21-7.81,6.94-14.2,14.6-13.88,7.76.33,14.15,7.12,13.88,14.74-.27,7.77-6.86,13.89-14.76,13.72Z"/>
      <path class="cls-1" d="M136.72,611.12c-8.01-.03-14.12-6.22-14.06-14.24.06-7.85,6.55-14.32,14.26-14.22,7.71.1,14.27,6.74,14.23,14.4-.04,7.73-6.57,14.09-14.43,14.06Z"/>
      <path class="cls-1" d="M167.14,611.12c-7.98-.14-13.98-6.44-13.8-14.49.17-7.82,6.84-14.23,14.51-13.97,7.74.27,14.18,7.02,13.97,14.65-.21,7.75-6.79,13.95-14.68,13.81Z"/>
      <path class="cls-1" d="M1362.97,611.12c-7.95-.2-13.9-6.57-13.67-14.62.23-7.8,6.99-14.19,14.65-13.83,7.76.36,14.13,7.17,13.83,14.78-.3,7.77-6.9,13.86-14.81,13.67Z"/>
      <path class="cls-1" d="M1393.66,611.12c-7.96-.18-13.92-6.54-13.69-14.6.22-7.81,6.96-14.2,14.62-13.85,7.76.35,14.14,7.14,13.86,14.76-.29,7.77-6.88,13.88-14.78,13.7Z"/>
      <path class="cls-1" d="M1424.53,611.13c-7.98-.1-14.03-6.36-13.89-14.4.13-7.83,6.74-14.27,14.42-14.06,7.74.21,14.22,6.92,14.07,14.56-.15,7.74-6.72,14-14.59,13.9Z"/>
      <path class="cls-1" d="M136.57,641.79c-7.99-.09-14.04-6.35-13.91-14.39.13-7.83,6.72-14.27,14.41-14.07,7.74.2,14.22,6.9,14.08,14.55-.14,7.74-6.71,14.01-14.58,13.92Z"/>
      <path class="cls-1" d="M167.07,641.79c-7.97-.16-13.95-6.5-13.74-14.55.2-7.81,6.91-14.21,14.57-13.9,7.75.31,14.16,7.09,13.91,14.71-.25,7.76-6.84,13.91-14.74,13.75Z"/>
      <path class="cls-1" d="M228.35,641.78c-7.95-.19-13.91-6.56-13.68-14.61.22-7.8,6.98-14.19,14.63-13.84,7.76.35,14.13,7.15,13.84,14.77-.3,7.77-6.89,13.87-14.8,13.68Z"/>
      <path class="cls-1" d="M443,641.78c-7.95-.19-13.91-6.56-13.68-14.61.23-7.81,6.98-14.19,14.64-13.84,7.76.35,14.13,7.15,13.84,14.77-.3,7.77-6.89,13.87-14.8,13.68Z"/>
      <path class="cls-1" d="M964.81,613.32c7.71.04,14.3,6.62,14.32,14.31.02,7.72-6.48,14.15-14.33,14.16-8.02.01-14.18-6.14-14.16-14.14.02-7.86,6.45-14.36,14.17-14.32Z"/>
      <path class="cls-1" d="M995.09,641.79c-7.97-.15-13.97-6.46-13.78-14.52.18-7.81,6.87-14.23,14.54-13.94,7.75.29,14.17,7.05,13.95,14.67-.23,7.76-6.81,13.93-14.7,13.78Z"/>
      <path class="cls-1" d="M1025.77,641.79c-7.97-.14-13.97-6.45-13.79-14.5.18-7.82,6.85-14.23,14.52-13.96,7.75.28,14.18,7.03,13.96,14.66-.22,7.76-6.8,13.94-14.69,13.8Z"/>
      <path class="cls-1" d="M1209.88,641.79c-7.99-.09-14.04-6.35-13.91-14.39.13-7.83,6.72-14.27,14.41-14.07,7.74.2,14.22,6.9,14.08,14.55-.14,7.74-6.71,14.01-14.58,13.92Z"/>
      <path class="cls-1" d="M1240.7,641.79c-8.01-.03-14.12-6.22-14.06-14.24.06-7.85,6.55-14.32,14.26-14.22,7.71.1,14.27,6.74,14.23,14.4-.04,7.73-6.57,14.09-14.43,14.06Z"/>
      <path class="cls-1" d="M1271.54,613.33c7.71.08,14.28,6.71,14.25,14.38-.02,7.73-6.54,14.11-14.41,14.09-8.01-.02-14.14-6.2-14.08-14.22.05-7.85,6.52-14.33,14.24-14.25Z"/>
      <path class="cls-1" d="M1302.21,613.33c7.71.09,14.28,6.72,14.25,14.38-.03,7.73-6.55,14.1-14.41,14.08-8.01-.02-14.13-6.2-14.08-14.22.05-7.85,6.53-14.33,14.24-14.24Z"/>
      <path class="cls-1" d="M1332.77,641.79c-8.02,0-14.16-6.15-14.14-14.16.03-7.86,6.47-14.35,14.18-14.3,7.71.05,14.3,6.65,14.31,14.32,0,7.73-6.5,14.14-14.35,14.14Z"/>
      <path class="cls-1" d="M1363.44,641.79c-8.02,0-14.16-6.15-14.14-14.16.03-7.86,6.47-14.35,14.18-14.3,7.71.05,14.3,6.65,14.31,14.32,0,7.73-6.5,14.14-14.35,14.14Z"/>
      <path class="cls-1" d="M1393.91,641.79c-7.99-.08-14.06-6.32-13.94-14.36.11-7.84,6.68-14.29,14.37-14.11,7.73.18,14.23,6.86,14.12,14.51-.12,7.74-6.68,14.03-14.55,13.95Z"/>
      <path class="cls-1" d="M44.44,672.45c-7.97-.15-13.96-6.47-13.78-14.52.18-7.81,6.87-14.22,14.54-13.94,7.75.29,14.17,7.05,13.94,14.68-.23,7.76-6.82,13.93-14.71,13.78Z"/>
      <path class="cls-1" d="M105.87,672.46c-7.98-.11-14.02-6.38-13.87-14.43.14-7.83,6.76-14.26,14.44-14.03,7.74.23,14.21,6.94,14.04,14.58-.17,7.74-6.74,13.98-14.62,13.88Z"/>
      <path class="cls-1" d="M136.4,672.45c-7.97-.17-13.94-6.5-13.73-14.56.2-7.81,6.92-14.21,14.58-13.89,7.75.32,14.15,7.1,13.9,14.72-.26,7.77-6.85,13.9-14.75,13.74Z"/>
      <path class="cls-1" d="M167.14,672.45c-7.98-.14-13.98-6.44-13.81-14.49.17-7.82,6.84-14.24,14.51-13.97,7.75.27,14.18,7.01,13.98,14.64-.21,7.75-6.79,13.95-14.68,13.81Z"/>
      <path class="cls-1" d="M197.81,672.45c-7.98-.14-13.98-6.44-13.81-14.49.17-7.82,6.84-14.24,14.51-13.97,7.75.27,14.18,7.01,13.98,14.64-.21,7.75-6.79,13.95-14.68,13.81Z"/>
      <path class="cls-1" d="M228.47,672.45c-7.98-.14-13.98-6.44-13.81-14.49.17-7.82,6.84-14.24,14.51-13.97,7.75.27,14.18,7.01,13.98,14.64-.21,7.75-6.79,13.95-14.68,13.81Z"/>
      <path class="cls-1" d="M259.14,672.45c-7.98-.14-13.98-6.44-13.81-14.49.17-7.82,6.84-14.24,14.51-13.97,7.75.27,14.18,7.01,13.98,14.64-.21,7.75-6.79,13.95-14.68,13.81Z"/>
      <path class="cls-1" d="M289.8,672.45c-7.98-.14-13.98-6.44-13.81-14.49.17-7.82,6.84-14.24,14.51-13.97,7.75.27,14.18,7.01,13.98,14.64-.21,7.75-6.79,13.95-14.68,13.81Z"/>
      <path class="cls-1" d="M320.47,672.45c-7.98-.14-13.98-6.44-13.81-14.49.17-7.82,6.84-14.24,14.51-13.97,7.75.27,14.18,7.01,13.98,14.64-.21,7.75-6.79,13.95-14.68,13.81Z"/>
      <path class="cls-1" d="M351.22,672.46c-7.98-.1-14.03-6.37-13.89-14.41.13-7.83,6.74-14.27,14.43-14.05,7.74.22,14.21,6.92,14.06,14.56-.15,7.74-6.72,14-14.6,13.9Z"/>
      <path class="cls-1" d="M412.34,672.45c-7.95-.19-13.91-6.56-13.68-14.61.23-7.81,6.98-14.19,14.64-13.84,7.76.35,14.13,7.15,13.84,14.77-.3,7.77-6.89,13.87-14.8,13.68Z"/>
      <path class="cls-1" d="M443.12,672.45c-7.97-.14-13.97-6.45-13.79-14.5.18-7.82,6.85-14.23,14.52-13.96,7.74.28,14.18,7.03,13.96,14.66-.22,7.76-6.8,13.94-14.69,13.8Z"/>
      <path class="cls-1" d="M473.88,672.46c-7.98-.1-14.03-6.37-13.89-14.41.13-7.83,6.75-14.27,14.43-14.05,7.74.22,14.21,6.93,14.06,14.57-.16,7.74-6.73,13.99-14.6,13.89Z"/>
      <path class="cls-1" d="M504.65,672.46c-8-.05-14.09-6.27-14-14.3.09-7.84,6.62-14.3,14.32-14.16,7.73.14,14.25,6.8,14.17,14.46-.08,7.73-6.63,14.06-14.49,14Z"/>
      <path class="cls-1" d="M596.53,672.46c-7.98-.11-14.02-6.38-13.87-14.43.14-7.83,6.76-14.26,14.44-14.03,7.74.23,14.21,6.94,14.04,14.58-.17,7.74-6.74,13.98-14.62,13.88Z"/>
      <path class="cls-1" d="M657.93,672.46c-7.99-.08-14.06-6.32-13.94-14.36.11-7.84,6.68-14.29,14.37-14.11,7.73.18,14.23,6.86,14.12,14.51-.12,7.74-6.68,14.03-14.55,13.95Z"/>
      <path class="cls-1" d="M780.77,672.46c-8.02,0-14.16-6.16-14.12-14.18.03-7.86,6.48-14.35,14.2-14.29,7.71.06,14.29,6.66,14.29,14.34,0,7.73-6.51,14.13-14.37,14.13Z"/>
      <path class="cls-1" d="M887.14,658.43c-.07,7.73-6.61,14.07-14.47,14.02-8-.05-14.1-6.26-14.02-14.28.08-7.85,6.6-14.31,14.3-14.18,7.72.13,14.25,6.78,14.19,14.44Z"/>
      <path class="cls-1" d="M902.88,672.45c-7.93-.24-13.85-6.66-13.56-14.72.27-7.59,6.73-13.82,14.24-13.73,7.91.09,14.6,7.09,14.23,14.89-.37,7.79-6.98,13.8-14.91,13.57Z"/>
      <path class="cls-1" d="M933.8,672.45c-7.98-.13-13.99-6.43-13.82-14.48.17-7.82,6.82-14.24,14.5-13.98,7.74.26,14.19,7.01,13.99,14.64-.2,7.75-6.79,13.95-14.67,13.82Z"/>
      <path class="cls-1" d="M964.54,672.46c-7.98-.1-14.03-6.36-13.89-14.4.13-7.83,6.74-14.27,14.42-14.06,7.74.21,14.22,6.92,14.07,14.56-.15,7.74-6.72,14-14.59,13.9Z"/>
      <path class="cls-1" d="M995.6,643.99c7.72.12,14.26,6.77,14.2,14.43-.06,7.73-6.59,14.08-14.46,14.04-8-.04-14.11-6.24-14.03-14.27.07-7.85,6.58-14.31,14.29-14.2Z"/>
      <path class="cls-1" d="M1040.47,658.44c-.07,7.73-6.62,14.06-14.48,14.02-8-.05-14.09-6.26-14.01-14.29.08-7.85,6.61-14.31,14.31-14.17,7.72.13,14.26,6.79,14.18,14.45Z"/>
      <path class="cls-1" d="M1056.55,672.46c-7.99-.09-14.04-6.35-13.91-14.39.13-7.83,6.72-14.27,14.41-14.07,7.74.2,14.22,6.9,14.08,14.54-.14,7.74-6.71,14.01-14.58,13.92Z"/>
      <path class="cls-1" d="M1087.16,672.46c-7.98-.11-14.01-6.4-13.86-14.44.15-7.83,6.78-14.25,14.46-14.02,7.74.24,14.2,6.96,14.03,14.6-.18,7.75-6.75,13.98-14.63,13.86Z"/>
      <path class="cls-1" d="M1117.81,672.46c-7.98-.12-14-6.42-13.83-14.46.16-7.82,6.8-14.25,14.48-14,7.74.25,14.19,6.99,14,14.62-.19,7.75-6.77,13.96-14.65,13.84Z"/>
      <path class="cls-1" d="M1179.18,672.46c-7.98-.11-14.02-6.38-13.88-14.42.14-7.83,6.76-14.26,14.44-14.04,7.74.22,14.21,6.94,14.05,14.58-.16,7.74-6.73,13.99-14.61,13.88Z"/>
      <path class="cls-1" d="M1302.06,672.46c-8.01-.01-14.14-6.19-14.09-14.21.05-7.85,6.51-14.34,14.23-14.26,7.71.08,14.28,6.7,14.26,14.37-.02,7.73-6.54,14.11-14.4,14.1Z"/>
      <path class="cls-1" d="M1332.43,672.45c-7.97-.14-13.97-6.45-13.79-14.5.18-7.82,6.85-14.23,14.52-13.96,7.75.28,14.18,7.03,13.96,14.66-.22,7.76-6.8,13.94-14.69,13.8Z"/>
      <path class="cls-1" d="M1363.18,672.46c-7.98-.11-14.02-6.38-13.88-14.42.14-7.83,6.76-14.26,14.44-14.04,7.74.22,14.21,6.94,14.05,14.58-.16,7.74-6.74,13.99-14.61,13.88Z"/>
      <path class="cls-1" d="M1393.88,672.46c-7.99-.09-14.04-6.35-13.91-14.39.13-7.83,6.72-14.27,14.41-14.07,7.74.2,14.22,6.9,14.08,14.54-.14,7.74-6.71,14.01-14.58,13.92Z"/>
      <path class="cls-1" d="M1424.37,672.45c-7.97-.17-13.94-6.51-13.73-14.56.2-7.81,6.92-14.21,14.58-13.89,7.75.32,14.15,7.1,13.89,14.72-.26,7.77-6.85,13.9-14.75,13.73Z"/>
      <path class="cls-1" d="M136.47,703.12c-7.98-.14-13.98-6.44-13.81-14.49.17-7.82,6.84-14.24,14.51-13.97,7.75.27,14.18,7.01,13.98,14.64-.21,7.75-6.79,13.95-14.68,13.81Z"/>
      <path class="cls-1" d="M167.62,674.66c7.72.12,14.26,6.77,14.2,14.43-.06,7.73-6.59,14.08-14.46,14.04-8-.04-14.11-6.24-14.03-14.27.07-7.85,6.58-14.32,14.29-14.2Z"/>
      <path class="cls-1" d="M197.8,703.12c-7.98-.14-13.98-6.44-13.8-14.49.17-7.82,6.84-14.23,14.51-13.97,7.74.27,14.18,7.02,13.97,14.65-.21,7.75-6.79,13.95-14.68,13.81Z"/>
      <path class="cls-1" d="M228.39,703.12c-7.97-.17-13.94-6.51-13.73-14.56.2-7.81,6.92-14.21,14.58-13.89,7.75.32,14.15,7.1,13.9,14.72-.26,7.77-6.85,13.9-14.75,13.73Z"/>
      <path class="cls-1" d="M259.58,703.12c-8.03.06-14.23-6.05-14.26-14.04-.02-7.87,6.34-14.39,14.07-14.42,7.7-.03,14.33,6.5,14.42,14.21.09,7.71-6.39,14.2-14.23,14.26Z"/>
      <path class="cls-1" d="M289.73,703.12c-7.97-.17-13.94-6.5-13.73-14.56.2-7.81,6.92-14.21,14.58-13.89,7.75.32,14.15,7.1,13.9,14.72-.26,7.77-6.85,13.9-14.75,13.74Z"/>
      <path class="cls-1" d="M320.35,703.12c-7.95-.19-13.91-6.55-13.68-14.61.22-7.8,6.97-14.19,14.63-13.84,7.76.35,14.13,7.15,13.85,14.77-.29,7.77-6.89,13.87-14.79,13.69Z"/>
      <path class="cls-1" d="M365.82,689.1c-.07,7.73-6.61,14.07-14.47,14.02-8-.05-14.1-6.26-14.02-14.28.08-7.85,6.6-14.31,14.3-14.18,7.72.13,14.25,6.78,14.19,14.44Z"/>
      <path class="cls-1" d="M381.72,703.12c-7.96-.17-13.93-6.52-13.72-14.57.21-7.81,6.93-14.21,14.59-13.88,7.76.33,14.15,7.11,13.89,14.73-.27,7.77-6.86,13.9-14.76,13.72Z"/>
      <path class="cls-1" d="M412.57,703.12c-7.99-.09-14.04-6.35-13.91-14.39.13-7.83,6.72-14.27,14.41-14.07,7.74.2,14.22,6.9,14.08,14.54-.14,7.74-6.71,14.01-14.58,13.92Z"/>
      <path class="cls-1" d="M457.81,689.07c-.05,7.73-6.58,14.08-14.44,14.05-8.01-.03-14.11-6.23-14.05-14.25.07-7.85,6.56-14.32,14.27-14.21,7.72.11,14.27,6.75,14.22,14.41Z"/>
      <path class="cls-1" d="M474.07,703.12c-8.01-.02-14.13-6.2-14.08-14.22.05-7.85,6.53-14.33,14.24-14.24,7.71.09,14.28,6.71,14.25,14.38-.03,7.73-6.55,14.1-14.41,14.09Z"/>
      <path class="cls-1" d="M504.43,703.12c-7.97-.15-13.96-6.47-13.78-14.52.18-7.81,6.87-14.22,14.54-13.94,7.75.29,14.17,7.05,13.94,14.68-.23,7.76-6.82,13.93-14.71,13.78Z"/>
      <path class="cls-1" d="M535.25,703.12c-7.99-.08-14.05-6.34-13.93-14.37.12-7.84,6.7-14.28,14.39-14.09,7.73.19,14.23,6.88,14.1,14.53-.13,7.74-6.69,14.02-14.56,13.93Z"/>
      <path class="cls-1" d="M565.8,703.12c-7.98-.13-13.99-6.43-13.82-14.48.17-7.82,6.83-14.24,14.5-13.98,7.74.26,14.19,7.01,13.99,14.64-.2,7.75-6.79,13.95-14.67,13.82Z"/>
      <path class="cls-1" d="M596.48,703.12c-7.98-.13-13.99-6.42-13.83-14.47.16-7.82,6.81-14.24,14.49-13.99,7.74.26,14.19,6.99,14,14.63-.2,7.75-6.78,13.96-14.66,13.83Z"/>
      <path class="cls-1" d="M627.22,703.12c-7.98-.1-14.03-6.36-13.89-14.4.13-7.83,6.74-14.27,14.42-14.06,7.74.21,14.22,6.92,14.07,14.56-.15,7.74-6.72,14-14.59,13.9Z"/>
      <path class="cls-1" d="M672.47,689.07c-.05,7.73-6.58,14.09-14.44,14.06-8.01-.03-14.12-6.23-14.05-14.25.06-7.85,6.56-14.32,14.27-14.21,7.71.11,14.27,6.75,14.22,14.41Z"/>
      <path class="cls-1" d="M688.39,703.12c-7.97-.17-13.95-6.5-13.74-14.55.2-7.81,6.91-14.21,14.57-13.9,7.75.31,14.16,7.09,13.91,14.71-.25,7.76-6.84,13.91-14.74,13.74Z"/>
      <path class="cls-1" d="M719.06,703.12c-7.97-.17-13.95-6.5-13.74-14.55.2-7.81,6.91-14.21,14.57-13.9,7.75.31,14.16,7.09,13.91,14.71-.26,7.76-6.84,13.91-14.74,13.74Z"/>
      <path class="cls-1" d="M749.72,703.12c-7.97-.17-13.95-6.5-13.74-14.55.2-7.81,6.91-14.21,14.57-13.9,7.75.31,14.16,7.09,13.91,14.71-.25,7.76-6.84,13.91-14.74,13.74Z"/>
      <path class="cls-1" d="M780.39,703.12c-7.97-.17-13.95-6.5-13.74-14.55.2-7.81,6.91-14.21,14.57-13.9,7.75.31,14.16,7.09,13.91,14.71-.25,7.76-6.84,13.91-14.74,13.74Z"/>
      <path class="cls-1" d="M811.06,703.12c-7.97-.17-13.95-6.5-13.74-14.55.2-7.81,6.91-14.21,14.57-13.9,7.75.31,14.16,7.09,13.91,14.71-.25,7.76-6.84,13.91-14.74,13.74Z"/>
      <path class="cls-1" d="M841.72,703.12c-7.97-.17-13.95-6.5-13.74-14.55.2-7.81,6.91-14.21,14.57-13.9,7.75.31,14.16,7.09,13.91,14.71-.25,7.76-6.84,13.91-14.74,13.74Z"/>
      <path class="cls-1" d="M872.57,703.12c-7.99-.09-14.04-6.34-13.92-14.38.12-7.84,6.71-14.28,14.4-14.08,7.73.2,14.23,6.89,14.09,14.54-.13,7.74-6.7,14.01-14.57,13.93Z"/>
      <path class="cls-1" d="M903.46,703.12c-8.02,0-14.17-6.15-14.14-14.16.02-7.86,6.46-14.35,14.18-14.31,7.71.05,14.3,6.63,14.31,14.32.02,7.72-6.49,14.14-14.35,14.15Z"/>
      <path class="cls-1" d="M933.81,703.12c-7.98-.13-13.99-6.42-13.83-14.47.16-7.82,6.81-14.24,14.49-13.99,7.74.26,14.19,6.99,14,14.63-.2,7.75-6.78,13.96-14.66,13.83Z"/>
      <path class="cls-1" d="M964.44,703.12c-7.97-.14-13.98-6.45-13.8-14.5.17-7.82,6.85-14.23,14.52-13.96,7.75.28,14.18,7.03,13.97,14.65-.22,7.75-6.8,13.94-14.69,13.8Z"/>
      <path class="cls-1" d="M1009.8,689.07c-.05,7.73-6.58,14.08-14.45,14.05-8-.03-14.11-6.23-14.04-14.26.07-7.85,6.57-14.32,14.28-14.21,7.72.11,14.26,6.76,14.21,14.42Z"/>
      <path class="cls-1" d="M1025.89,703.12c-7.99-.09-14.04-6.35-13.91-14.39.13-7.83,6.72-14.27,14.41-14.07,7.74.2,14.22,6.9,14.08,14.54-.14,7.74-6.71,14.01-14.58,13.92Z"/>
      <path class="cls-1" d="M1056.92,674.66c7.72.11,14.27,6.75,14.22,14.41-.05,7.73-6.58,14.08-14.44,14.05-8.01-.03-14.11-6.23-14.05-14.25.07-7.85,6.57-14.32,14.27-14.21Z"/>
      <path class="cls-1" d="M1087.42,703.12c-8.01,0-14.15-6.18-14.11-14.19.04-7.86,6.5-14.34,14.21-14.27,7.71.07,14.28,6.68,14.28,14.35,0,7.73-6.52,14.12-14.38,14.11Z"/>
      <path class="cls-1" d="M1118.27,674.66c7.72.13,14.26,6.78,14.19,14.44-.07,7.73-6.6,14.07-14.47,14.03-8-.04-14.1-6.25-14.02-14.28.08-7.85,6.59-14.31,14.3-14.19Z"/>
      <path class="cls-1" d="M1148.7,703.12c-8.01-.03-14.12-6.22-14.06-14.24.06-7.85,6.55-14.32,14.26-14.22,7.71.1,14.27,6.74,14.23,14.4-.04,7.73-6.57,14.09-14.43,14.06Z"/>
      <path class="cls-1" d="M1179.06,703.12c-7.97-.16-13.95-6.49-13.75-14.54.19-7.81,6.9-14.22,14.56-13.92,7.75.3,14.16,7.07,13.92,14.7-.25,7.76-6.83,13.92-14.73,13.76Z"/>
      <path class="cls-1" d="M1209.9,703.12c-7.99-.08-14.05-6.34-13.93-14.37.12-7.84,6.69-14.28,14.39-14.09,7.73.19,14.23,6.88,14.1,14.52-.13,7.74-6.69,14.02-14.56,13.94Z"/>
      <path class="cls-1" d="M1240.58,703.12c-7.99-.08-14.06-6.32-13.94-14.36.11-7.84,6.68-14.29,14.37-14.11,7.73.18,14.23,6.86,14.12,14.51-.12,7.74-6.68,14.03-14.55,13.95Z"/>
      <path class="cls-1" d="M1271.3,703.12c-8-.05-14.09-6.27-14-14.3.09-7.84,6.62-14.3,14.32-14.16,7.73.14,14.25,6.8,14.17,14.46-.08,7.73-6.63,14.06-14.49,14Z"/>
      <path class="cls-1" d="M1301.9,703.12c-7.99-.08-14.05-6.34-13.93-14.37.12-7.84,6.69-14.28,14.39-14.09,7.73.19,14.23,6.88,14.1,14.52-.13,7.74-6.69,14.02-14.56,13.94Z"/>
      <path class="cls-1" d="M1332.43,703.12c-7.97-.14-13.97-6.45-13.79-14.5.18-7.82,6.85-14.23,14.52-13.95,7.74.28,14.18,7.03,13.96,14.66-.22,7.76-6.8,13.94-14.69,13.8Z"/>
      <path class="cls-1" d="M1363.02,703.12c-7.96-.17-13.93-6.51-13.72-14.57.21-7.81,6.93-14.21,14.59-13.88,7.76.33,14.15,7.11,13.89,14.73-.27,7.77-6.86,13.9-14.76,13.73Z"/>
      <path class="cls-1" d="M1393.75,703.12c-7.97-.15-13.97-6.46-13.78-14.51.18-7.82,6.86-14.23,14.53-13.95,7.75.28,14.17,7.04,13.95,14.67-.22,7.76-6.81,13.93-14.7,13.79Z"/>
      <path class="cls-1" d="M1455.55,674.66c7.71.1,14.27,6.73,14.24,14.39-.04,7.73-6.56,14.09-14.42,14.07-8.01-.02-14.12-6.21-14.07-14.23.06-7.85,6.54-14.33,14.25-14.23Z"/>
      <path class="cls-1" d="M44.46,733.79c-7.97-.14-13.97-6.45-13.79-14.5.18-7.82,6.85-14.23,14.52-13.96,7.75.28,14.18,7.03,13.96,14.66-.22,7.76-6.8,13.94-14.69,13.8Z"/>
      <path class="cls-1" d="M228.44,733.79c-7.97-.15-13.97-6.46-13.78-14.52.18-7.81,6.87-14.23,14.54-13.94,7.75.29,14.17,7.05,13.95,14.67-.23,7.76-6.81,13.93-14.7,13.78Z"/>
      <path class="cls-1" d="M473.77,733.79c-7.97-.15-13.97-6.46-13.78-14.52.18-7.81,6.87-14.23,14.54-13.94,7.75.29,14.17,7.05,13.95,14.67-.23,7.76-6.81,13.93-14.7,13.78Z"/>
      <path class="cls-1" d="M688.59,733.79c-7.99-.08-14.06-6.33-13.94-14.36.11-7.84,6.68-14.29,14.38-14.11,7.73.18,14.23,6.86,14.12,14.51-.12,7.74-6.68,14.03-14.55,13.95Z"/>
      <path class="cls-1" d="M1209.65,733.78c-7.95-.19-13.91-6.56-13.68-14.61.23-7.8,6.98-14.19,14.64-13.84,7.76.36,14.13,7.16,13.84,14.77-.3,7.77-6.89,13.87-14.8,13.68Z"/>
      <path class="cls-1" d="M1271.4,733.79c-8.01-.01-14.14-6.19-14.1-14.2.05-7.85,6.51-14.34,14.22-14.26,7.71.08,14.28,6.69,14.26,14.36-.02,7.73-6.53,14.11-14.39,14.1Z"/>
      <path class="cls-1" d="M1301.94,733.79c-8-.07-14.07-6.3-13.97-14.33.1-7.84,6.65-14.29,14.35-14.13,7.73.16,14.24,6.83,14.14,14.49-.1,7.73-6.65,14.04-14.52,13.98Z"/>
      <path class="cls-1" d="M1377.79,719.77c-.07,7.73-6.61,14.07-14.47,14.02-8-.05-14.1-6.26-14.02-14.28.08-7.85,6.6-14.31,14.3-14.18,7.72.13,14.26,6.78,14.19,14.44Z"/>
    </g>
  </g>
</svg>