<?xml version="1.0" encoding="UTF-8"?>
<svg id="Layer_2" data-name="Layer 2" xmlns="http://www.w3.org/2000/svg" viewBox="0 0 726.09 313.05">
  <defs>
    <style>
      .cls-1 {
        fill: #ce2937;
        stroke: #df7869;
        stroke-miterlimit: 10;
        stroke-width: 7px;
      }
    </style>
  </defs>
  <g id="Layer_1-2" data-name="Layer 1">
    <g>
      <g>
        <path class="cls-1" d="M272.63,309.48c-23.41,0-46.83,0-70.24,0-2.7,0-5.35-.23-7.91-1.21-6.92-2.65-11.65-9.07-11.71-16.49-.11-12.36-.13-24.72,0-37.08.11-9.36,7.63-16.91,17.03-17.54,2.13-.14,4.33-.3,6.35-.91,7.28-2.2,11.94-8.39,12.37-16.08.05-.83.04-1.67.04-2.51,0-34.93.02-69.86-.02-104.79,0-4.33,1-8.29,3.64-11.74,3.37-4.41,7.83-6.85,13.41-7.28,2.13-.17,4.33-.29,6.35-.9,7.39-2.22,12.08-8.5,12.43-16.4.1-2.22.33-4.39,1.09-6.5,2.52-6.94,8.74-11.6,16.1-12.01.54-.03,1.07-.06,1.61-.06,11.59,0,23.18.02,34.76-.01,4.87-.01,9.14,1.47,12.79,4.71,5.34,4.74,7.47,12.49,5.06,19.29-2.59,7.32-7.84,11.49-15.58,12.41-1.12.13-2.26.14-3.4.14-11.05,0-22.1,0-33.15,0-2.46,0-4.87.26-7.21,1.14-7.64,2.87-12.33,10.69-11.21,18.8,1.11,8.1,7.73,14.37,15.88,15.04,1.07.09,2.15.12,3.22.13,11.11,0,22.22.04,33.33-.01,5.07-.03,9.6,1.38,13.24,4.92,5.51,5.35,7.29,11.87,4.82,19.16-2.46,7.28-7.78,11.38-15.44,12.32-1.12.14-2.26.15-3.4.15-11.05.01-22.1,0-33.15,0-2.46,0-4.87.23-7.21,1.11-6.71,2.5-11.2,8.73-11.4,15.89-.02.72-.02,1.43-.02,2.15,0,22.99,0,45.98,0,68.96,0,2.47.16,4.89,1.1,7.21,2.71,6.69,7.67,10.46,14.83,11.31.89.11,1.79.13,2.68.13,11.23,0,22.46,0,33.69,0,2.83,0,5.61-.31,8.2-1.55,6.79-3.26,10.24-8.71,10.46-16.19.1-3.46.02-6.93.02-10.39,0-8.48-.11-16.96.04-25.44.14-7.88,3.98-13.62,11.2-16.64,11.43-4.8,23.51,2.76,25.06,14.22.15,1.12.25,2.26.25,3.39.01,23.35.01,46.69.01,70.04,0,6.51-2.42,11.85-7.74,15.73-3.41,2.49-7.31,3.39-11.48,3.38-10.27-.02-20.55,0-30.82,0-13.32,0-26.64,0-39.96,0Z"/>
        <path class="cls-1" d="M3.52,183.67c0-35.47.01-70.93-.02-106.4,0-3.22.48-6.29,1.9-9.2,3.48-7.11,11.47-11.18,19.38-9.88,7.84,1.29,14.04,7.65,15.03,15.46.17,1.3.25,2.62.25,3.93.01,23.11.02,46.21,0,69.32,0,2.41.26,4.74,1.06,7.04,2.34,6.66,9.64,12.41,18.73,11.34,7.66-.9,14.06-7.17,15.1-15.02.13-.94.2-1.9.24-2.85.36-9.7,7.59-17.11,17.23-17.75,2.07-.14,4.2-.3,6.17-.9,7.27-2.2,11.95-8.38,12.39-16.06.04-.77.04-1.55.04-2.33,0-11.34-.07-22.69.03-34.03.07-7.86,3.77-13.64,10.94-16.82,11.25-4.98,23.76,2.36,25.33,14.17.14,1.06.24,2.14.24,3.21.01,71.17.01,142.34,0,213.51,0,6.52-2.39,11.94-7.8,15.69-5.88,4.07-12.27,4.55-18.67,1.38-6.28-3.11-9.58-8.41-10.05-15.41-.06-.89-.03-1.79-.03-2.69,0-34.81,0-69.62,0-104.43,0-3.78-.7-7.34-2.75-10.58-4.11-6.51-12.03-9.63-19.48-7.6-7.38,2.01-12.64,8.59-12.88,16.25-.13,4.35-1.16,8.38-3.89,11.85-3.27,4.16-7.54,6.51-12.81,6.99-2.61.24-5.23.28-7.75,1.23-6.7,2.53-11.2,8.73-11.4,15.89-.02.78-.02,1.55-.02,2.33,0,22.99,0,45.97,0,68.96,0,4.97-1.39,9.41-4.74,13.15-4.88,5.46-12.82,7.47-19.64,5-7.18-2.61-11.92-9.05-12.15-16.56-.03-.84-.02-1.67-.02-2.51,0-35.23,0-70.45,0-105.68Z"/>
        <path class="cls-1" d="M541.83,183.62c0,35.47,0,70.93,0,106.4,0,4.23-.87,8.18-3.37,11.66-3.71,5.18-8.84,7.66-15.16,7.79-.42,0-.84,0-1.25,0-34.88,0-69.76,0-104.64,0-2.76,0-5.47-.26-8.08-1.27-7.67-2.98-12.35-10.72-11.49-19.13.81-7.93,7.24-14.7,15.22-15.9,1.47-.22,2.98-.23,4.47-.23,22.94-.01,45.87-.02,68.81,0,3.84,0,7.46-.69,10.76-2.78,6.45-4.09,9.48-11.8,7.54-19.32-1.87-7.22-8.31-12.51-15.81-12.95-.95-.06-1.91-.07-2.86-.07-10.99,0-21.98,0-32.97,0-2.27,0-4.53-.15-6.72-.88-7.56-2.53-12.41-8.93-12.66-16.91-.16-5.4-1.94-10.03-6.04-13.65-2.96-2.62-6.43-4.06-10.38-4.31-2.62-.16-5.22-.33-7.73-1.3-6.83-2.64-11.45-9.04-11.69-16.35-.01-.36-.02-.72-.02-1.07,0-23.64.01-47.29-.01-70.93,0-4.95,1.51-9.31,4.96-12.86,5.33-5.47,11.86-7.16,19.04-4.79,7.05,2.32,11.2,7.45,12.32,14.87.19,1.23.23,2.5.23,3.75.02,11.4.02,22.81,0,34.21,0,5.45,1.98,10.01,6.11,13.58,2.78,2.41,6.03,3.81,9.72,4.14,1.72.15,3.48.15,5.17.49,8.66,1.71,14.48,8.67,14.82,17.75.11,2.79.6,5.44,1.83,7.95,3.35,6.85,10.9,10.71,18.62,9.51,7.44-1.15,13.46-7.32,14.45-14.86.18-1.36.24-2.74.24-4.1.01-34.93.02-69.86,0-104.78,0-3.22.48-6.29,1.9-9.2,3.48-7.11,11.47-11.18,19.38-9.88,7.84,1.29,14.04,7.65,15.03,15.46.17,1.36.25,2.74.25,4.1.01,35.29.01,70.57.01,105.86Z"/>
      </g>
      <g>
        <path class="cls-1" d="M722.58,93.63c0,23.55-.01,47.1.01,70.65,0,5.42-1.58,10.16-5.5,14.02-3.71,3.65-8.18,5.33-13.35,5.39-6.33.07-11.05,3.08-14.47,8.27-1.57,2.38-2.29,5.03-2.47,7.87-.12,1.9-.19,3.83-.62,5.68-1.99,8.64-10.58,14.74-19.42,13.9-9.27-.88-16.49-8.37-16.7-17.52-.14-6.2-.05-12.41-.05-18.62,0-17.82.03-35.64-.02-53.46-.02-6.77,2.83-11.95,8.29-15.76,3.03-2.11,6.47-2.92,10.14-2.97,5.98-.08,10.71-2.63,14.21-7.46,2.23-3.08,3.14-6.57,3.17-10.32.03-4.61.01-9.23.01-13.84,0-19.01.04-38.03-.02-57.04-.02-6.77,2.74-12.06,8.28-15.75,5.75-3.83,12.03-4.15,18.17-1.13,6.41,3.16,9.85,8.57,10.29,15.78.05.87.03,1.75.03,2.62,0,23.23,0,46.46,0,69.69Z"/>
        <path class="cls-1" d="M668.46,254.32c10.15.03,18.35,8.26,18.3,18.39-.04,10.12-8.29,18.36-18.4,18.36-10.23,0-18.41-8.28-18.35-18.58.06-10.25,8.14-18.2,18.44-18.18Z"/>
      </g>
    </g>
  </g>
</svg>