<?xml version="1.0" encoding="UTF-8"?>
<svg id="Layer_2" data-name="Layer 2" xmlns="http://www.w3.org/2000/svg" viewBox="0 0 991.24 315.23">
  <defs>
    <style>
      .cls-1 {
        fill: #ce2937;
        stroke: #df7869;
        stroke-miterlimit: 10;
        stroke-width: 7px;
      }
    </style>
  </defs>
  <g id="Layer_1-2" data-name="Layer 1">
    <g>
      <path class="cls-1" d="M374.86,121.91c0,22.13,0,44.25,0,66.38,0,2.32.22,4.58,1.04,6.78,2.29,6.12,8.13,10.45,14.67,10.62,4.73.13,8.94,1.43,12.47,4.67,5.05,4.62,6.82,12.02,4.43,18.53-2.41,6.55-8.48,11.1-15.4,11.17-11.74.11-23.47.03-35.21.03-.06,0-.11,0-.17,0-8.63-.34-15.82-7.55-16.16-16.2-.03-.84-.03-1.68-.03-2.53,0-32.74,0-65.48,0-98.22,0-2.78-.27-5.51-1.5-8.04-3.09-6.37-8.27-9.56-15.29-9.76-3.37-.09-6.74-.02-10.11-.02-7.58,0-15.16-.01-22.74,0-5.02.01-9.36,1.68-12.78,5.43-2.71,2.97-4.25,6.49-4.27,10.53-.05,11.62-.11,23.25.02,34.87.09,8.57,7.12,15.59,15.69,15.84,4.73.14,8.93,1.45,12.46,4.7,5.03,4.63,6.79,12.03,4.38,18.54-2.4,6.48-8.4,10.89-15.26,11.14-2.6.09-5.17.37-7.54,1.51-6.03,2.9-9.39,7.68-9.74,14.41-.17,3.24-.66,6.38-2.35,9.19-3.4,5.65-8.42,8.59-15.04,8.61-11.12.04-22.24.02-33.36,0-1.12,0-2.25-.09-3.35-.29-7.35-1.34-12.91-7.2-13.9-14.59-.98-7.3,2.82-14.38,9.44-17.68,2.63-1.31,5.43-1.69,8.31-1.84,6.01-.32,10.54-3.15,13.63-8.29,1.45-2.41,2.06-5.08,2.18-7.87.02-.56.02-1.12.02-1.68,0-44.03,0-88.06,0-132.09,0-2.96-.37-5.82-1.69-8.5-3.28-6.67-10.28-10.25-17.75-9.05-6.87,1.1-12.45,6.86-13.44,13.95-.17,1.22-.14,2.47-.14,3.7,0,32.85-.01,65.71,0,98.56,0,4.1-.87,7.92-3.35,11.25-3.29,4.41-7.69,6.81-13.2,7-3.68.13-7.14.89-10.15,3.08-4.39,3.2-6.81,7.53-6.98,13.01-.1,3.25-.7,6.37-2.42,9.17-3.42,5.55-8.41,8.44-14.95,8.46-10.78.04-21.57,0-32.35.02-1.18,0-2.36.08-3.52.23-7.87,1.04-13.9,7.66-14.14,15.6-.14,4.6-1.38,8.72-4.49,12.2-4.6,5.14-12,7.02-18.47,4.68-6.7-2.42-11.15-8.4-11.42-15.4-.1-2.6-.37-5.16-1.52-7.53-2.99-6.18-7.97-9.33-14.78-9.8-1.89-.13-3.84-.28-5.63-.86-7.28-2.37-11.77-8.69-11.8-16.47-.04-10.78,0-21.57-.03-32.35,0-1.62-.11-3.27-.46-4.84-1.67-7.43-7.86-12.46-15.75-12.83-2.26-.11-4.47-.37-6.59-1.19-6.32-2.46-10.63-8.52-10.86-15.31,0-.17-.02-.34-.02-.51,0-22.63-.04-45.27.03-67.9.02-5.98,2.75-10.66,7.68-14.03,2.92-1.99,6.21-2.82,9.71-2.87,2.87-.04,5.56-.76,8.02-2.23,5.28-3.17,7.99-7.9,8.23-14.02.1-2.5.42-4.94,1.49-7.2,3.02-6.35,8.1-9.7,15.08-10.22.28-.02.56-.03.84-.03,22.3,0,44.59-.01,66.89,0,5.34,0,9.85,2.01,13.37,6.07,2.8,3.23,4.07,7.07,4.13,11.31.04,2.34.45,4.6,1.48,6.69,3.11,6.26,8.19,9.56,15.19,9.61,11.12.07,22.24.02,33.36.01.95,0,1.92-.05,2.85-.21,8-1.42,13.46-7.69,13.81-15.94.11-2.56.41-5.05,1.53-7.36,3.26-6.72,8.72-10.09,16.14-10.15,10.16-.08,20.33-.02,30.49-.02.95,0,1.91-.02,2.86,0,8.21.25,14.82,5.57,16.6,13.46.34,1.52.45,3.12.46,4.68.04,10.84.03,21.68.02,32.52,0,5.06,1.82,9.31,5.63,12.66,3.22,2.82,7.01,4.1,11.29,4.09,9.77-.03,19.54-.01,29.32-.01,1.4,0,2.81.02,4.21-.01,7.68-.17,14.05-5.27,15.78-12.74.36-1.57.47-3.23.48-4.84.04-10.73.05-21.45,0-32.18-.01-4.33,1.24-8.2,4.05-11.49,3.35-3.93,7.69-6.04,12.83-6.09,11.4-.1,22.8-.14,34.2,0,8.15.1,14.68,5.51,16.5,13.34.33,1.41.44,2.89.5,4.34.34,8.82,7.13,15.68,15.99,15.95,5.99.18,10.99,2.33,14.46,7.29,3.9,5.57,4.38,11.61,1.33,17.69-2.99,5.96-8.02,9.14-14.7,9.39-9.69.35-17.4-6.92-17.72-16.65-.17-5.21-1.87-9.71-5.94-13.05-5.19-4.25-11.06-5.18-17.2-2.5-6.13,2.68-9.41,7.58-9.88,14.3-.05.78-.03,1.57-.03,2.36,0,21.96,0,43.92,0,65.88ZM37.88,88.16c0,11.17-.05,22.35.02,33.52.04,7.01,3.35,12.07,9.61,15.17,2.14,1.06,4.46,1.44,6.85,1.5,5.87.16,10.62,2.56,14.08,7.35,2.24,3.11,3.04,6.67,3.18,10.47.21,5.81,2.89,10.27,7.77,13.4,2.88,1.84,6.06,2.49,9.46,2.49,21.95-.03,43.91-.02,65.86-.02.45,0,.9,0,1.35-.02,6.78-.43,11.62-3.74,14.52-9.85,1.15-2.42,1.43-5.05,1.43-7.72-.01-21.73,0-43.46,0-65.19,0-.56,0-1.12-.03-1.68-.23-4.26-1.77-7.97-4.78-11.02-3.38-3.43-7.57-4.84-12.31-4.98-5.71-.17-10.23-2.7-13.53-7.34-2-2.82-2.99-6-3.04-9.47-.07-4.63-1.59-8.69-4.9-11.99-3.45-3.44-7.7-4.87-12.51-4.87-21.22.01-42.45,0-63.67,0-.95,0-1.91-.02-2.86,0-3.87.13-7.41,1.24-10.41,3.75-4.08,3.41-6.08,7.8-6.07,13.13.02,11.12,0,22.23,0,33.35Z"/>
      <g>
        <path class="cls-1" d="M688.86,169.45c0-29.25.02-58.5-.02-87.75,0-4.09.9-7.86,3.3-11.18,3.46-4.81,8.22-7.31,14.13-7.67.24-.01.47-.03.71-.03,23.58,0,47.15-.05,70.73.02,8.74.03,15.76,5.7,17.71,14.06.34,1.48.46,3.04.52,4.56.36,9.35,7.64,16.67,17.01,16.77,11.7.12,23.4.04,35.1.04,4,0,7.73.94,11.02,3.29,4.96,3.53,7.45,8.4,7.77,14.43.02.41.02.83.02,1.24,0,34.86,0,69.73,0,104.59,0,4.45-1.08,8.54-3.89,12.07-3.43,4.32-7.91,6.68-13.43,6.88-3.93.14-7.64.93-10.84,3.29-4.84,3.57-7.31,8.38-7.31,14.43,0,11.4,0,22.81,0,34.21,0,2.38-.27,4.72-1.06,6.97-2.51,7.12-9,11.84-16.56,12.04-.41.01-.83.01-1.24.01-23.16,0-46.33-.02-69.49.02-4.55,0-8.66-1.18-12.15-4.1-4.16-3.48-6.42-7.97-6.55-13.42-.13-5.49-1.99-10.15-6.2-13.77-3.38-2.91-7.37-4.1-11.76-4.2-4.5-.1-8.43-1.68-11.72-4.74-3.67-3.42-5.62-7.67-5.79-12.71-.03-.77-.02-1.54-.02-2.3,0-29.01,0-58.03,0-87.04ZM725.03,187.29c0,20.32,0,40.65,0,60.97,0,3.49-.05,6.97.03,10.46.21,9.2,7.56,16.68,16.77,16.79,12.17.14,24.34.11,36.51,0,7.28-.06,13.57-4.82,15.94-11.71.74-2.15.89-4.38,1.01-6.63.25-4.83,2.18-8.9,5.71-12.19,3.48-3.25,7.67-4.79,12.4-4.87,2.46-.04,4.83-.47,7.04-1.54,6.7-3.25,10.1-8.69,10.24-16.09.1-5.37.02-10.75.02-16.13,0-6.2.01-12.41,0-18.61-.01-4.81-1.57-9.04-4.95-12.52-3.58-3.69-8.03-5.15-13.08-5.37-7.4-.32-12.69-4-15.87-10.66-1.11-2.32-1.51-4.82-1.57-7.39-.1-4.61-1.67-8.66-4.9-12-3.47-3.59-7.78-5.29-12.71-5.34-10.09-.1-17.82-8.41-17.83-17.88,0-.82-.11-1.65-.22-2.47-.99-7.46-6.76-13.54-14.01-14.78-7.72-1.32-15.18,2.37-18.66,9.23-1.4,2.75-1.87,5.67-1.86,8.74.02,23.34.01,46.67.01,70.01Z"/>
        <path class="cls-1" d="M654.11,187.2c0,35.16,0,70.31,0,105.47,0,5.12-1.47,9.65-5,13.43-4.86,5.21-12.61,7.01-19.39,4.5-6.83-2.52-11.48-8.84-11.75-16.03-.1-2.73-.37-5.44-1.57-7.94-3.15-6.58-8.45-9.91-15.68-10.39-1.99-.13-4.04-.32-5.91-.94-7.59-2.52-12.28-9.12-12.32-17.21-.05-10.4-.01-20.8-.01-31.2,0-1.3.02-2.6,0-3.9-.18-9.83-7.17-17.1-16.99-17.61-2.07-.11-4.13-.24-6.1-.93-7.56-2.61-12.31-9.16-12.34-17.23-.05-11.34,0-22.69-.03-34.03,0-1.3-.08-2.6-.25-3.88-1.09-8.24-8.15-14.62-16.69-14.82-9.19-.21-15.83,6.21-17.37,13.58-.35,1.66-.41,3.4-.41,5.1-.02,46.38-.02,92.77-.01,139.15,0,2.62-.27,5.18-1.19,7.66-2.91,7.83-10.68,12.58-19.08,11.64-8.13-.9-14.75-7.44-15.77-15.63-.13-1.05-.13-2.12-.13-3.19,0-58.56,0-117.11-.02-175.67,0-7.23,2.95-12.76,9.17-16.48,2.97-1.78,6.26-2.39,9.68-2.39,7.74,0,15.48,0,23.22,0,15.36,0,30.73.01,46.09,0,4.66,0,8.87,1.26,12.45,4.3,4.37,3.71,6.42,8.52,6.46,14.2.04,6.2.01,12.41.01,18.61,0,16.96-.02,33.92.03,50.87,0,1.87.13,3.81.6,5.61,2.05,7.82,9.12,12.97,17.27,12.77,7.91-.19,14.77-5.86,16.41-13.67.35-1.66.42-3.4.42-5.11.02-34.63.02-69.25,0-103.88,0-2.5.24-4.94,1.11-7.31,2.74-7.53,10.4-12.47,18.52-11.74,8.8.79,15.41,7.66,16.31,15.64.15,1.29.22,2.59.22,3.89.01,34.92,0,69.84,0,104.76Z"/>
      </g>
      <g>
        <path class="cls-1" d="M987.73,103.28c0,23.55-.01,47.1.01,70.65,0,5.42-1.58,10.16-5.5,14.02-3.71,3.65-8.18,5.33-13.35,5.39-6.33.07-11.05,3.08-14.47,8.27-1.57,2.38-2.29,5.03-2.47,7.87-.12,1.9-.19,3.83-.62,5.68-1.99,8.64-10.58,14.74-19.42,13.9-9.27-.88-16.49-8.37-16.7-17.52-.14-6.2-.05-12.41-.05-18.62,0-17.82.03-35.64-.02-53.46-.02-6.77,2.83-11.95,8.29-15.76,3.03-2.11,6.47-2.92,10.14-2.97,5.98-.08,10.71-2.63,14.21-7.46,2.23-3.08,3.14-6.57,3.17-10.32.03-4.61.01-9.23.01-13.84,0-19.01.04-38.03-.02-57.04-.02-6.77,2.74-12.06,8.28-15.75,5.75-3.83,12.03-4.15,18.17-1.13,6.41,3.16,9.85,8.57,10.29,15.78.05.87.03,1.75.03,2.62,0,23.23,0,46.46,0,69.69Z"/>
        <path class="cls-1" d="M933.61,263.97c10.15.03,18.35,8.26,18.3,18.39-.04,10.12-8.29,18.36-18.4,18.36-10.23,0-18.41-8.28-18.35-18.58.06-10.25,8.14-18.2,18.44-18.18Z"/>
      </g>
    </g>
  </g>
</svg>