<?xml version="1.0" encoding="UTF-8"?>
<svg id="Layer_1" data-name="Layer 1" xmlns="http://www.w3.org/2000/svg" viewBox="0 0 2404.09 904.7">
  <defs>
    <style>
      .cls-1 {
        fill: #000;
        stroke-width: 0px;
      }
    </style>
  </defs>
  <path class="cls-1" d="M2004.07,304.07c0,81.67.07,163.33-.07,245-.02,11.33,1.93,21.84,8.68,31.16,12.16,16.79,32.62,24.06,52.16,18.52,19.58-5.56,33.12-22.05,35-42.86.36-3.97.23-7.99.23-11.99.01-63.33.14-126.67-.07-190-.06-17.65,6.7-31.66,20.18-42.62,9.74-7.93,21.27-10.74,33.55-10.98,16.31-.31,28.59-8.01,37.9-20.84,6.07-8.37,8.34-18.07,8.43-28.29.08-9.23,2.47-17.77,7.33-25.6,12.44-20.05,34.76-29.02,57.91-23.33,20.98,5.16,36.52,24.1,38.61,47.04.45,4.97.3,10.08,1.44,14.88,4.88,20.47,22.75,34.64,43.83,36.24,8.19.62,16.88,1.65,24.22,4.98,19.23,8.71,29.21,24.52,30.58,45.63.17,2.66.08,5.33.08,8,0,95.66.05,191.33-.1,286.99-.01,7.26-.54,14.77-2.42,21.74-5.41,20.03-24.6,34.89-45.42,36.51-6.61.51-13.4,1-19.68,2.9-18.41,5.55-31.51,22.92-32.21,42.64-.56,16.05-5.05,30.22-17.38,41.06-16.31,14.35-35.09,17.68-54.92,9.43-19.41-8.07-30.06-23.28-31.92-44.64-.68-7.86-1.5-16.24-4.74-23.24-9.03-19.53-25.5-28.09-46.75-28.08-55.33.03-110.67.01-166,0-11,0-22.01.23-33-.12-23.12-.73-42.94-16.98-48.13-39.49-1.11-4.82-1.04-9.91-1.48-14.87-1.96-22.26-16.8-39.77-37.3-44.01-22.11-4.57-42.85,4.86-53.27,24.21-3.72,6.9-5.15,14.3-5.34,22.11-.34,14.59-5.21,27.36-15.96,37.6-9.56,9.11-20.81,14.42-34.1,14.47-34.67.13-69.34.42-104-.07-27.22-.38-48.6-21.6-49.71-48.91-.64-15.8-5.36-29.31-17.7-39.73-9.68-8.17-21.09-10.73-33.38-11.33-23.34-1.14-42.87-17.42-47.88-39.83-1.01-4.51-.97-9.25-1.33-13.89-1.95-24.69-18.21-42.11-42.61-45.64-25.33-3.65-50.57,16.19-53.02,41.69-.48,4.97-.55,10-1.4,14.9-4.74,27.27-28.11,44.9-56.34,42.68-25.47-2-46.24-23.86-46.38-50.22-.33-64.66-.11-129.33-.19-194,0-5.31-.18-10.7-1.08-15.91-4.11-23.76-25.68-40.97-49.14-39.53-25.37,1.56-44.04,20.53-45.84,45.64-.59,8.17-1.87,16.76-5.06,24.2-9.35,21.77-33.43,33.68-56.85,29.31-23.22-4.33-40.75-24.32-41.82-48.3-.54-11.96-2.95-23.08-10.63-32.62-12.84-15.95-33.51-22.09-53.11-15.73-18.99,6.16-32.26,23.93-32.32,44.73-.21,64-.09,128-.1,192,0,3.33.09,6.67-.07,10-1.22,24.01-16.13,42.82-38.73,48.96-31.68,8.6-62.99-14.13-65.24-46.9-.54-7.86-1.6-16.14-4.66-23.27-8.93-20.81-30.84-31.23-53.61-26.72-21.29,4.22-36.68,22.15-37.55,44.53-.6,15.29-4.88,28.79-16.22,39.56-9.58,9.09-20.85,14.36-34.14,14.4-34.67.12-69.34.42-104-.08-27.57-.4-49.25-22.35-49.63-50.01-.45-32.33.15-64.67-.34-96.99-.12-8.16-1.17-16.93-4.39-24.28-8.09-18.46-23.36-28.08-43.43-28.37-33.33-.49-66.67-.43-100-.06-30.86.34-48.81,26.05-48.2,49.41.83,31.64.53,63.33-.02,94.99-.15,8.47-1.45,17.58-4.89,25.19-8.31,18.37-23.24,28.56-43.68,30.25-6.28.52-12.72,1-18.7,2.79-18.02,5.39-31.03,22.69-32.45,41.56-.49,6.61-.95,13.4-2.8,19.7-6.2,21.17-25.99,35.72-48.85,35.91-32,.27-64-.09-96,.22-6.9.07-14.08.89-20.62,2.96-18.89,5.97-31.52,23.57-31.7,44.01-.29,32.66-.12,65.33-.09,98,.02,15.32-4.22,28.99-15.52,39.79-16.34,15.62-35.61,19.6-56.28,11.18-20.26-8.25-31.29-24.12-32.16-46.41-.04-1-.04-2-.04-3C.08,718.64.15,586.31,0,453.98c-.02-17.64,6.64-31.67,20.11-42.66,9.73-7.94,21.25-10.8,33.53-11.03,16.31-.3,28.61-7.96,37.94-20.78,6.08-8.36,8.39-18.05,8.48-28.27.15-15.68,6.76-28.25,18.29-38.48,9.41-8.36,20.73-11.7,33.02-12.43,29.98-1.77,47.21-19.38,48.73-49.82,1.15-23.17,16.73-42.86,38.16-48.25,23.44-5.89,46.18,3.43,58.55,23.95,5.33,8.84,6.92,18.56,7.37,28.69.94,21.29,15.26,39.01,35.79,44.05,4.78,1.17,9.9,1.29,14.86,1.31,31.33.11,62.7-.8,93.99.31,27.61.99,50.95-20.6,51.44-49.52.45-26.51,18.21-45.78,44.36-49.91,4.9-.77,9.96-.79,14.94-.8,95.67-.04,191.33,0,287-.09,5.95,0,12.12-.06,17.82-1.52,20.7-5.27,34.46-22.92,35.53-45.43.44-9.15,1.71-17.92,6.38-25.89,10.06-17.17,25.13-26.67,45-26.94,33.66-.45,67.34-.59,100.99,0,29.37.52,50.31,21.8,51.66,51.62.43,9.58,2.2,18.55,7.65,26.47,9.72,14.12,22.95,21.8,40.43,21.76,32.67-.09,65.33-.09,98,.02,20.65.07,36.58,8.81,47.23,26.67,5.1,8.55,6.48,18.03,6.91,27.81.95,21.34,15.18,38.99,35.72,44.11,4.46,1.11,9.23,1.3,13.86,1.32,32,.11,64.02-.69,95.99.29,25.89.79,50.1-19.62,50.28-48.42.06-9.57,2.25-18.5,7.39-26.59,10.25-16.13,25.05-24.85,44.07-25.08,33.66-.39,67.34-.62,100.99.04,30.43.6,51.47,23.39,51.53,54.8.13,64.67.04,129.33.04,194,0,1.67.02,3.34-.09,5-1.51,24.16-17.31,43.46-40.27,48.77-4.5,1.04-9.25.97-13.89,1.38-32.96,2.89-53.61,33-43.45,63.38,6.33,18.94,23.55,32.13,43.65,32.34,33.33.35,66.68-.57,99.99.38,25.55.73,49.96-19.56,50.04-48.67.05-16.88,7.3-30.16,20.14-40.61,9.74-7.93,21.27-10.74,33.56-10.97,15.48-.29,27.39-7.33,36.71-19.25,6.62-8.46,9.36-18.33,9.56-28.9.19-10,.06-20,.06-30,0-88,.12-176-.19-264-.03-8.47-1.1-17.62-4.42-25.27-8.01-18.5-23.35-27.66-43.41-28.45-9.53-.37-18.48-2.26-26.68-7.22-19.82-12-29.45-34.64-24.18-56.77,5.38-22.6,24.97-39.36,49.06-39.86,34.32-.72,68.68-.81,102.99,0,28.83.67,49.81,22.66,50.72,51.5.36,11.32.08,22.66.08,34,0,72.67,0,145.33,0,218ZM104.07,502.5s.06,0,.1,0c0,17.65-.34,35.32.09,52.96.47,18.94,13.46,36.31,31.43,42.25,33.82,11.18,63.37-13.3,64.5-45.12,1.12-31.36,21.19-50.68,52.79-52.34,3.96-.21,8.02-.53,11.81-1.57,21.43-5.9,35.03-24.11,35.21-47.72.25-32.31.07-64.62.04-96.93,0-2.33-.12-4.67-.44-6.97-2.85-20.02-13.79-34.01-32.92-40.1-19.9-6.32-37.52-1.18-51.49,14.66-7.06,8-10.34,17.51-11.22,28.22-.65,7.87-1.39,16.25-4.54,23.3-8.57,19.14-23.79,30.63-45.13,30.93-30.58.43-52.47,23.96-50.42,53.47,1.04,14.92.18,29.97.18,44.96ZM800.04,403.46c0-16.98.36-33.97-.08-50.94-.71-26.98-19.52-47.13-46.44-47.88-34.27-.95-68.61-1.07-102.87-.02-33.21,1.02-54.5,32.53-44.31,63.27,5.45,16.44,22.89,32.37,43.67,32.42,20.14.05,35.97,8.43,46.71,25.76,5.62,9.08,6.98,19.18,7.51,29.63,1.54,30.12,31.02,51.17,60.18,43.18,20.95-5.73,35.03-23.81,35.56-46.49.38-16.31.07-32.63.07-48.94ZM2300.08,552.93c0-31,0-62,0-93,0-3.33.09-6.68-.16-9.99-1.55-20.17-14.16-36.83-32.34-42.87-19.36-6.43-39.22-.91-52.51,14.65-8.21,9.6-11.1,20.82-11.06,33.33.18,58,.07,116,.08,173.99,0,8.67-.26,17.35.14,26,.9,19.55,10.86,33.65,28.4,41.26,17.85,7.75,35.25,5.51,50.48-7.41,11.98-10.16,17.02-23.46,16.99-38.96-.05-32.33-.01-64.66,0-97ZM1551.66,400.28c26.85.11,48.51-21.41,48.35-48.05-.16-26.23-21.59-47.67-47.84-47.85-26.25-.19-47.79,21.03-48.06,47.34-.27,27.39,20.34,48.44,47.55,48.55Z"/>
</svg>