<?xml version="1.0" encoding="UTF-8"?>
<svg id="Layer_2" data-name="Layer 2" xmlns="http://www.w3.org/2000/svg" viewBox="0 0 516.27 796.36">
  <defs>
    <style>
      .cls-1 {
        fill: #767264;
      }

      .cls-1, .cls-2, .cls-3 {
        stroke-width: 0px;
      }

      .cls-2 {
        fill: #ee674a;
      }

      .cls-3 {
        fill: #b9c933;
      }
    </style>
  </defs>
  <g id="Layer_1-2" data-name="Layer 1">
    <path class="cls-1" d="M258.68,36.34c-9.7.27-18.16-7.48-18.64-17.09-.51-10.23,7.38-18.93,17.47-19.24,9.93-.31,18.68,8.14,18.75,18.11.07,9.55-8.04,17.96-17.58,18.22h0Z"/>
    <path class="cls-1" d="M258.68,76.34c-9.7.27-18.16-7.48-18.64-17.09-.51-10.23,7.38-18.93,17.47-19.24,9.93-.31,18.68,8.14,18.75,18.11.07,9.55-8.04,17.96-17.58,18.22h0Z"/>
    <path class="cls-3" d="M76.27,98.59c-.2,9.54-8.56,17.75-18.06,17.76-10.14,0-18.51-8.55-18.18-18.57.32-9.94,8.21-17.74,17.96-17.78,9.95-.03,18.49,8.65,18.28,18.59h0Z"/>
    <path class="cls-3" d="M97.97,80c9.95-.04,18.5,8.64,18.3,18.58-.19,9.54-8.54,17.76-18.05,17.77-9.73,0-17.98-7.95-18.21-17.56-.25-10.24,7.89-18.74,17.96-18.79Z"/>
    <path class="cls-3" d="M138.55,116.35c-9.71.2-18.11-7.62-18.52-17.23-.44-10.25,7.51-18.88,17.61-19.12,9.92-.23,18.63,8.3,18.62,18.25,0,9.52-8.21,17.91-17.71,18.1h0Z"/>
    <path class="cls-3" d="M178.34,80c9.96.17,18.32,9.02,17.9,18.95-.4,9.59-8.87,17.59-18.4,17.4-9.72-.2-17.82-8.33-17.85-17.93-.03-10.26,8.26-18.59,18.34-18.41h0Z"/>
    <path class="cls-1" d="M258.68,116.34c-9.7.27-18.16-7.48-18.64-17.09-.51-10.23,7.38-18.93,17.47-19.24,9.93-.31,18.68,8.14,18.75,18.11.07,9.55-8.04,17.96-17.58,18.22h0Z"/>
    <path class="cls-3" d="M18.56,156.35c-9.7.2-18.11-7.62-18.53-17.22-.44-10.25,7.5-18.88,17.6-19.13,9.92-.24,18.63,8.29,18.63,18.24s-8.17,17.91-17.7,18.1h0Z"/>
    <path class="cls-3" d="M76.26,138.25c0,9.54-8.2,17.9-17.71,18.1-10.11.2-18.67-8.21-18.54-18.22.13-9.9,7.9-17.89,17.63-18.12,9.92-.24,18.63,8.3,18.62,18.25h0Z"/>
    <path class="cls-3" d="M97.97,156.35c-9.73-.13-17.88-8.21-17.97-17.81-.1-10.26,8.14-18.64,18.22-18.54,9.95.1,18.38,8.9,18.03,18.83-.33,9.58-8.75,17.65-18.28,17.52Z"/>
    <path class="cls-3" d="M138.1,156.35c-9.73-.06-17.94-8.07-18.1-17.68-.18-10.24,8.02-18.7,18.09-18.67,9.95.03,18.44,8.77,18.17,18.7-.26,9.57-8.63,17.71-18.16,17.65h0Z"/>
    <path class="cls-3" d="M196.26,138.14c.06,9.53-8.09,17.96-17.6,18.21-10.09.27-18.72-8.12-18.65-18.11.07-9.89,7.81-17.94,17.52-18.23,9.93-.3,18.67,8.17,18.73,18.13Z"/>
    <path class="cls-3" d="M218.68,156.34c-9.7.27-18.16-7.49-18.64-17.09-.51-10.23,7.38-18.93,17.47-19.24,9.93-.31,18.68,8.14,18.75,18.11.07,9.55-8.05,17.95-17.58,18.22h0Z"/>
    <path class="cls-1" d="M258.68,156.34c-9.7.27-18.16-7.49-18.64-17.09-.51-10.23,7.38-18.93,17.47-19.24,9.93-.31,18.68,8.14,18.75,18.11.07,9.55-8.04,17.96-17.58,18.22h0Z"/>
    <path class="cls-3" d="M36.26,178.53c-.16,9.54-8.48,17.78-17.99,17.82-10.13.04-18.54-8.48-18.25-18.5.29-9.92,8.16-17.77,17.89-17.84,9.94-.08,18.51,8.58,18.35,18.53h0Z"/>
    <path class="cls-3" d="M178.23,160c9.95.11,18.37,8.91,18.02,18.84-.34,9.58-8.76,17.64-18.3,17.51-9.73-.14-17.87-8.21-17.96-17.82-.1-10.25,8.15-18.63,18.23-18.52h.01Z"/>
    <path class="cls-3" d="M218.16,196.35c-9.73-.02-17.96-8.01-18.16-17.62-.21-10.24,7.96-18.72,18.03-18.73,9.94,0,18.47,8.7,18.24,18.64-.22,9.53-8.61,17.73-18.1,17.71h-.01Z"/>
    <path class="cls-1" d="M258.68,196.34c-9.7.27-18.16-7.49-18.64-17.09-.51-10.23,7.38-18.93,17.47-19.24,9.93-.31,18.68,8.14,18.75,18.11.07,9.55-8.04,17.96-17.58,18.22h0Z"/>
    <path class="cls-3" d="M218.11,200c9.95.04,18.43,8.79,18.14,18.72-.27,9.55-8.67,17.69-18.19,17.62-9.73-.07-17.93-8.1-18.08-17.7-.16-10.24,8.05-18.68,18.12-18.64h.01Z"/>
    <path class="cls-1" d="M258.68,236.34c-9.7.27-18.16-7.49-18.64-17.09-.51-10.23,7.38-18.93,17.47-19.24,9.93-.31,18.68,8.14,18.75,18.11.07,9.55-8.04,17.96-17.58,18.22h0Z"/>
    <path class="cls-3" d="M218.68,276.34c-9.7.27-18.16-7.48-18.64-17.09-.51-10.23,7.38-18.93,17.47-19.24,9.93-.31,18.68,8.15,18.75,18.11.07,9.55-8.05,17.96-17.58,18.22h0Z"/>
    <path class="cls-1" d="M258.68,276.34c-9.7.27-18.16-7.49-18.64-17.09-.51-10.23,7.38-18.93,17.47-19.24,9.93-.31,18.68,8.14,18.75,18.11.07,9.55-8.04,17.96-17.58,18.22h0Z"/>
    <path class="cls-2" d="M138.68,316.34c-9.7.27-18.16-7.48-18.64-17.09-.51-10.23,7.38-18.93,17.47-19.24,9.93-.31,18.68,8.14,18.75,18.11.07,9.55-8.05,17.95-17.58,18.22h0Z"/>
    <path class="cls-2" d="M196.26,298.25c0,9.54-8.2,17.9-17.71,18.1-10.11.2-18.67-8.21-18.54-18.22.13-9.9,7.9-17.89,17.63-18.12,9.92-.23,18.63,8.3,18.62,18.25h0Z"/>
    <path class="cls-2" d="M218.07,316.35c-9.73-.07-17.92-8.1-18.08-17.71-.16-10.24,8.05-18.68,18.12-18.64,9.95.04,18.43,8.79,18.14,18.72-.27,9.56-8.66,17.69-18.19,17.62h.01Z"/>
    <path class="cls-2" d="M276.26,298.48c-.14,9.54-8.44,17.8-17.95,17.87-10.13.07-18.56-8.43-18.3-18.46.26-9.91,8.13-17.79,17.85-17.89,9.94-.1,18.54,8.54,18.39,18.48h.01Z"/>
    <path class="cls-2" d="M299.19,280.01c9.96.68,17.92,9.94,17.01,19.78-.89,9.62-9.65,17.16-19.2,16.5-9.77-.67-17.39-9.08-16.97-18.72.45-10.28,9.14-18.25,19.15-17.56h0Z"/>
    <path class="cls-2" d="M338.68,316.34c-9.7.27-18.16-7.49-18.64-17.09-.51-10.23,7.38-18.93,17.47-19.24,9.93-.31,18.68,8.14,18.75,18.11.07,9.55-8.05,17.95-17.58,18.22Z"/>
    <path class="cls-2" d="M378.68,316.34c-9.7.27-18.16-7.48-18.64-17.09-.51-10.23,7.38-18.93,17.47-19.24,9.93-.31,18.68,8.14,18.75,18.11.07,9.55-8.04,17.96-17.58,18.22Z"/>
    <path class="cls-2" d="M116.26,338.53c-.16,9.54-8.48,17.78-17.99,17.82-10.13.04-18.54-8.48-18.25-18.5.29-9.91,8.16-17.77,17.89-17.84,9.94-.07,18.52,8.58,18.35,18.52Z"/>
    <path class="cls-2" d="M156.27,338.62c-.21,9.53-8.59,17.74-18.08,17.73-10.14-.01-18.49-8.57-18.15-18.59.34-9.94,8.23-17.73,17.98-17.75,9.94-.02,18.48,8.68,18.26,18.61h0Z"/>
    <path class="cls-2" d="M196.27,338.62c-.21,9.53-8.59,17.74-18.08,17.73-10.14-.01-18.49-8.57-18.15-18.59.34-9.94,8.23-17.73,17.98-17.75,9.94-.02,18.48,8.68,18.26,18.61h0Z"/>
    <path class="cls-2" d="M218.1,356.35c-9.73-.06-17.94-8.07-18.1-17.68-.18-10.24,8.02-18.7,18.09-18.67,9.95.03,18.44,8.77,18.17,18.7-.26,9.57-8.63,17.71-18.16,17.65h0Z"/>
    <path class="cls-2" d="M258.68,356.34c-9.7.27-18.16-7.49-18.64-17.09-.51-10.23,7.38-18.93,17.47-19.24,9.93-.31,18.68,8.15,18.75,18.11.07,9.55-8.05,17.95-17.58,18.22h0Z"/>
    <path class="cls-2" d="M298.18,320c9.95.08,18.4,8.86,18.08,18.79-.31,9.57-8.72,17.66-18.25,17.56-9.72-.11-17.9-8.17-18.01-17.77-.12-10.25,8.11-18.66,18.19-18.58h0Z"/>
    <path class="cls-2" d="M337.65,320c9.92-.23,18.62,8.31,18.61,18.26-.01,9.53-8.22,17.9-17.72,18.08-9.71.19-18.11-7.64-18.51-17.24-.43-10.25,7.52-18.87,17.63-19.11h-.01Z"/>
    <path class="cls-2" d="M378.68,356.34c-9.7.27-18.16-7.49-18.64-17.09-.51-10.23,7.38-18.93,17.47-19.24,9.93-.31,18.68,8.15,18.75,18.11.07,9.55-8.05,17.96-17.58,18.22Z"/>
    <path class="cls-2" d="M418.68,356.34c-9.7.27-18.16-7.49-18.64-17.09-.51-10.23,7.38-18.93,17.47-19.24,9.93-.31,18.68,8.14,18.75,18.11.07,9.55-8.04,17.96-17.58,18.22Z"/>
    <path class="cls-2" d="M58.68,396.34c-9.7.27-18.16-7.48-18.64-17.09-.51-10.23,7.38-18.93,17.47-19.24,9.93-.31,18.68,8.14,18.75,18.11.07,9.55-8.05,17.95-17.58,18.22h0Z"/>
    <path class="cls-2" d="M98.68,396.34c-9.7.27-18.16-7.49-18.64-17.09-.51-10.23,7.38-18.93,17.47-19.24,9.93-.31,18.68,8.15,18.75,18.11.07,9.55-8.05,17.96-17.58,18.22h0Z"/>
    <path class="cls-2" d="M138.68,396.34c-9.7.27-18.16-7.49-18.64-17.09-.51-10.23,7.38-18.93,17.47-19.24,9.93-.31,18.68,8.14,18.75,18.11.07,9.55-8.04,17.96-17.58,18.22h0Z"/>
    <path class="cls-2" d="M377.97,396.35c-9.73-.13-17.88-8.21-17.97-17.81-.1-10.26,8.14-18.64,18.22-18.54,9.95.1,18.38,8.9,18.03,18.83-.33,9.58-8.75,17.65-18.28,17.52h0Z"/>
    <path class="cls-2" d="M418.68,396.34c-9.7.27-18.16-7.49-18.64-17.09-.51-10.23,7.38-18.93,17.47-19.24,9.93-.31,18.68,8.15,18.75,18.11.07,9.55-8.05,17.96-17.58,18.22Z"/>
    <path class="cls-2" d="M458.68,396.34c-9.7.27-18.16-7.49-18.64-17.09-.51-10.23,7.38-18.93,17.47-19.24,9.93-.31,18.68,8.14,18.75,18.11.07,9.55-8.04,17.96-17.58,18.22Z"/>
    <path class="cls-2" d="M17.7,400c9.92-.2,18.6,8.37,18.56,18.31-.04,9.53-8.26,17.88-17.78,18.03-9.72.16-18.08-7.68-18.46-17.29-.4-10.27,7.56-18.85,17.67-19.05h.01Z"/>
    <path class="cls-2" d="M58.68,436.34c-9.7.27-18.16-7.49-18.64-17.09-.51-10.23,7.38-18.93,17.47-19.24,9.93-.31,18.68,8.15,18.75,18.11.07,9.55-8.05,17.96-17.58,18.22h0Z"/>
    <path class="cls-2" d="M98.68,436.34c-9.7.27-18.16-7.49-18.64-17.09-.51-10.23,7.38-18.93,17.47-19.24,9.93-.31,18.68,8.14,18.75,18.11.07,9.55-8.04,17.96-17.58,18.22h0Z"/>
    <path class="cls-2" d="M418.68,436.34c-9.7.27-18.16-7.49-18.64-17.09-.51-10.23,7.38-18.93,17.47-19.24,9.93-.31,18.68,8.15,18.75,18.11.07,9.55-8.05,17.95-17.58,18.22Z"/>
    <path class="cls-2" d="M458.68,436.34c-9.7.27-18.16-7.49-18.64-17.09-.51-10.23,7.38-18.93,17.47-19.24,9.93-.31,18.68,8.15,18.75,18.11.07,9.55-8.05,17.96-17.58,18.22Z"/>
    <path class="cls-2" d="M498.68,436.34c-9.7.27-18.16-7.49-18.64-17.09-.51-10.23,7.38-18.93,17.47-19.24,9.93-.31,18.68,8.14,18.75,18.11.07,9.55-8.04,17.96-17.58,18.22Z"/>
    <path class="cls-2" d="M17.97,440c9.94-.04,18.5,8.64,18.3,18.58-.19,9.54-8.54,17.76-18.05,17.77-9.73,0-17.98-7.95-18.21-17.56-.25-10.24,7.89-18.74,17.96-18.79h0Z"/>
    <path class="cls-2" d="M76.25,457.79c.25,9.52-7.72,18.1-17.24,18.56-10.05.48-18.89-7.79-19.02-17.76-.12-9.85,7.49-18.07,17.18-18.56,9.9-.5,18.81,7.79,19.07,17.77h.01Z"/>
    <path class="cls-2" d="M458.43,440c9.97.23,18.28,9.12,17.81,19.03-.46,9.6-8.95,17.55-18.48,17.31-9.73-.25-17.77-8.41-17.75-18.02.02-10.28,8.35-18.56,18.43-18.32h-.01Z"/>
    <path class="cls-2" d="M516.26,458.25c0,9.54-8.2,17.91-17.71,18.1-10.11.2-18.67-8.21-18.54-18.22.13-9.9,7.9-17.89,17.63-18.12,9.92-.24,18.63,8.3,18.62,18.25h0Z"/>
    <path class="cls-2" d="M36.26,497.86c.21,9.52-7.81,18.07-17.32,18.48-10.05.43-18.86-7.86-18.94-17.84-.08-9.85,7.56-18.04,17.26-18.49,9.91-.46,18.78,7.87,19,17.85h0Z"/>
    <path class="cls-2" d="M76.26,498.72c-.27,9.55-8.67,17.7-18.18,17.63-10.13-.07-18.44-8.68-18.05-18.7.4-9.94,8.33-17.69,18.08-17.65,9.95.04,18.43,8.78,18.15,18.72h0Z"/>
    <path class="cls-2" d="M458.51,480c9.96.28,18.24,9.2,17.73,19.11-.5,9.59-9.03,17.51-18.56,17.22-9.73-.3-17.73-8.48-17.67-18.09.06-10.29,8.42-18.53,18.5-18.25h0Z"/>
    <path class="cls-2" d="M516.26,498.35c-.07,9.53-8.31,17.86-17.82,17.99-10.12.14-18.62-8.31-18.43-18.33.19-9.91,8-17.84,17.73-18.02,9.93-.18,18.59,8.4,18.52,18.35h0Z"/>
    <path class="cls-2" d="M18.56,556.35c-9.7.2-18.11-7.62-18.53-17.22-.44-10.25,7.5-18.88,17.6-19.13,9.92-.24,18.63,8.29,18.63,18.24s-8.18,17.91-17.7,18.1h0Z"/>
    <path class="cls-2" d="M57.78,520c9.93-.16,18.57,8.44,18.49,18.39-.08,9.52-8.35,17.84-17.85,17.96-9.71.12-18.06-7.76-18.39-17.36-.36-10.24,7.67-18.82,17.76-18.98h-.01Z"/>
    <path class="cls-2" d="M440.01,538.8c-.25-10.24,7.88-18.75,17.95-18.8,9.55-.05,17.92,7.99,18.29,17.57.39,9.92-8.1,18.76-18.02,18.77-9.74.01-17.99-7.92-18.22-17.54h0Z"/>
    <path class="cls-2" d="M498.15,520c9.95.06,18.41,8.82,18.11,18.75-.29,9.57-8.68,17.68-18.22,17.59-9.73-.09-17.91-8.14-18.05-17.74-.14-10.25,8.08-18.67,18.15-18.61h.01Z"/>
    <path class="cls-2" d="M17.95,596.35c-9.73-.14-17.87-8.23-17.95-17.83-.09-10.25,8.17-18.63,18.24-18.52,9.95.11,18.37,8.92,18.01,18.85-.34,9.59-8.77,17.64-18.3,17.5h0Z"/>
    <path class="cls-2" d="M76.26,578.41c-.1,9.53-8.37,17.83-17.87,17.94-10.13.11-18.59-8.37-18.37-18.39.22-9.91,8.05-17.82,17.78-17.96,9.94-.15,18.56,8.46,18.46,18.41h0Z"/>
    <path class="cls-2" d="M476.26,577.99c.14,9.5-7.95,18.02-17.44,18.36-10.07.36-18.8-7.98-18.81-17.96-.01-9.87,7.67-17.99,17.38-18.37,9.92-.39,18.73,8,18.88,17.98h-.01Z"/>
    <path class="cls-2" d="M516.26,578.66c-.23,9.54-8.62,17.72-18.12,17.69-10.13-.04-18.47-8.62-18.11-18.64.36-9.94,8.27-17.71,18.02-17.71s18.46,8.72,18.21,18.66h0Z"/>
    <path class="cls-2" d="M18.47,636.35c-9.71.15-18.08-7.7-18.45-17.3-.39-10.25,7.59-18.85,17.69-19.04,9.92-.19,18.6,8.38,18.55,18.32-.05,9.53-8.28,17.87-17.79,18.02h0Z"/>
    <path class="cls-2" d="M58,636.35c-9.73-.11-17.9-8.17-18.01-17.77-.12-10.25,8.11-18.65,18.19-18.57,9.95.08,18.39,8.86,18.07,18.79-.31,9.58-8.72,17.66-18.25,17.56h0Z"/>
    <path class="cls-2" d="M458,636.35c-9.73-.11-17.9-8.17-18.01-17.77-.12-10.25,8.11-18.65,18.19-18.57,9.95.08,18.39,8.86,18.07,18.79-.31,9.58-8.72,17.66-18.25,17.56h0Z"/>
    <path class="cls-2" d="M498.55,636.35c-9.71.2-18.11-7.62-18.52-17.23-.44-10.25,7.51-18.88,17.61-19.12,9.92-.24,18.63,8.3,18.62,18.25,0,9.52-8.21,17.91-17.71,18.1Z"/>
    <path class="cls-2" d="M18.04,640c9.95,0,18.46,8.72,18.22,18.65-.23,9.53-8.62,17.73-18.12,17.69-9.73-.03-17.95-8.03-18.14-17.63-.2-10.23,7.98-18.71,18.05-18.71h0Z"/>
    <path class="cls-2" d="M76.26,658.05c.1,9.52-8.01,17.99-17.51,18.29-10.07.32-18.76-8.04-18.74-18.03.02-9.88,7.73-17.97,17.44-18.31,9.93-.35,18.71,8.07,18.81,18.05h0Z"/>
    <path class="cls-2" d="M98.55,676.35c-9.71.2-18.11-7.62-18.52-17.23-.44-10.25,7.51-18.88,17.61-19.12,9.92-.23,18.63,8.3,18.62,18.25,0,9.52-8.21,17.91-17.71,18.1h0Z"/>
    <path class="cls-2" d="M418.43,640c9.97.23,18.28,9.11,17.81,19.03-.46,9.6-8.95,17.55-18.48,17.31-9.73-.25-17.77-8.41-17.75-18.02.02-10.28,8.35-18.56,18.43-18.32h-.01Z"/>
    <path class="cls-2" d="M458.51,640c9.96.28,18.24,9.2,17.73,19.11-.5,9.59-9.03,17.51-18.56,17.22-9.73-.3-17.73-8.48-17.67-18.09.06-10.29,8.42-18.53,18.5-18.25h0Z"/>
    <path class="cls-2" d="M516.26,658.07c.09,9.53-8.02,17.98-17.53,18.27-10.07.31-18.75-8.06-18.72-18.05.03-9.88,7.75-17.96,17.46-18.29,9.93-.34,18.7,8.09,18.79,18.07h0Z"/>
    <path class="cls-2" d="M76.26,697.99c.14,9.5-7.95,18.02-17.44,18.36-10.07.36-18.8-7.98-18.81-17.96-.01-9.87,7.67-17.99,17.38-18.37,9.92-.39,18.73,8,18.88,17.98h-.01Z"/>
    <path class="cls-2" d="M116.26,698.07c.09,9.53-8.02,17.98-17.53,18.27-10.07.31-18.75-8.06-18.72-18.05.03-9.88,7.75-17.96,17.46-18.29,9.93-.34,18.7,8.09,18.79,18.07h0Z"/>
    <path class="cls-2" d="M139.19,680.01c9.96.68,17.92,9.94,17.01,19.78-.89,9.62-9.65,17.15-19.2,16.5-9.77-.67-17.39-9.08-16.97-18.72.45-10.28,9.14-18.25,19.15-17.56h0Z"/>
    <path class="cls-2" d="M378.05,680c9.95,0,18.46,8.72,18.22,18.65-.23,9.53-8.62,17.73-18.12,17.69-9.73-.03-17.95-8.03-18.14-17.63-.2-10.23,7.98-18.71,18.05-18.71h-.01Z"/>
    <path class="cls-2" d="M418.51,680c9.96.28,18.24,9.2,17.73,19.11-.5,9.59-9.03,17.51-18.56,17.22-9.73-.3-17.73-8.48-17.67-18.09.06-10.29,8.42-18.53,18.5-18.25h0Z"/>
    <path class="cls-2" d="M476.26,698.07c.09,9.53-8.02,17.98-17.53,18.27-10.07.31-18.75-8.06-18.72-18.05.03-9.88,7.75-17.96,17.46-18.29,9.93-.34,18.7,8.09,18.79,18.07h0Z"/>
    <path class="cls-2" d="M116.27,738.59c-.2,9.54-8.56,17.75-18.06,17.76-10.14,0-18.51-8.55-18.18-18.57.32-9.94,8.21-17.74,17.96-17.78,9.94-.04,18.49,8.66,18.28,18.59h0Z"/>
    <path class="cls-2" d="M138.1,756.35c-9.73-.06-17.93-8.07-18.1-17.68-.18-10.24,8.02-18.7,18.09-18.67,9.95.03,18.44,8.77,18.17,18.7-.26,9.55-8.65,17.71-18.16,17.65h0Z"/>
    <path class="cls-2" d="M178,756.35c-9.73-.11-17.9-8.17-18.01-17.77-.12-10.25,8.11-18.66,18.19-18.57,9.95.08,18.39,8.86,18.07,18.79-.31,9.58-8.72,17.66-18.25,17.56h0Z"/>
    <path class="cls-2" d="M236.26,738.47c-.13,9.54-8.43,17.81-17.93,17.88-10.13.08-18.57-8.42-18.31-18.44.25-9.91,8.11-17.8,17.84-17.9,9.94-.11,18.54,8.52,18.41,18.47h-.01Z"/>
    <path class="cls-2" d="M258.64,756.35c-9.7.24-18.15-7.54-18.6-17.14-.49-10.24,7.42-18.91,17.52-19.2,9.93-.28,18.67,8.19,18.71,18.16.04,9.53-8.11,17.95-17.62,18.19h-.01Z"/>
    <path class="cls-2" d="M298.64,756.35c-9.7.24-18.15-7.54-18.6-17.14-.49-10.24,7.42-18.91,17.52-19.2,9.93-.28,18.67,8.19,18.71,18.16.04,9.53-8.11,17.95-17.62,18.19h-.01Z"/>
    <path class="cls-2" d="M356.26,737.92c.18,9.52-7.87,18.05-17.38,18.43-10.06.4-18.83-7.91-18.88-17.89-.05-9.86,7.61-18.02,17.31-18.44,9.92-.43,18.76,7.93,18.95,17.91h0Z"/>
    <path class="cls-2" d="M378.11,720c9.95.04,18.43,8.79,18.14,18.72-.27,9.55-8.67,17.69-18.19,17.62-9.73-.07-17.93-8.1-18.08-17.7-.16-10.24,8.05-18.68,18.12-18.64h0Z"/>
    <path class="cls-2" d="M436.26,737.96c.15,9.51-7.92,18.03-17.42,18.39-10.06.38-18.81-7.95-18.84-17.93-.03-9.87,7.65-18,17.35-18.4,9.92-.4,18.74,7.97,18.91,17.95h0Z"/>
    <path class="cls-2" d="M156.26,778.01c.13,9.51-7.98,18.01-17.47,18.34-10.07.35-18.79-8-18.79-17.98s7.69-17.98,17.4-18.35c9.93-.37,18.73,8.02,18.86,18h0Z"/>
    <path class="cls-2" d="M178.15,760c9.95.06,18.41,8.82,18.11,18.75-.29,9.57-8.69,17.68-18.22,17.59-9.73-.09-17.91-8.14-18.05-17.74-.14-10.25,8.08-18.67,18.15-18.61h0Z"/>
    <path class="cls-2" d="M217.78,760c9.93-.16,18.57,8.44,18.49,18.39-.08,9.52-8.35,17.84-17.85,17.96-9.71.12-18.06-7.76-18.39-17.36-.36-10.24,7.67-18.82,17.76-18.98h-.01Z"/>
    <path class="cls-2" d="M276.26,778.72c-.27,9.55-8.67,17.7-18.18,17.63-10.13-.07-18.44-8.68-18.05-18.7.39-9.94,8.33-17.69,18.08-17.65,9.95.04,18.43,8.78,18.15,18.72h0Z"/>
    <path class="cls-2" d="M298.15,760c9.95.06,18.41,8.82,18.11,18.75-.29,9.57-8.69,17.68-18.22,17.59-9.73-.09-17.91-8.14-18.05-17.74-.14-10.25,8.08-18.67,18.15-18.61h.01Z"/>
    <path class="cls-2" d="M356.26,778.25c0,9.54-8.2,17.9-17.71,18.1-10.11.2-18.67-8.21-18.54-18.22.13-9.9,7.9-17.89,17.63-18.12,9.92-.24,18.63,8.3,18.62,18.25h0Z"/>
    <path class="cls-2" d="M396.26,778.04c.11,9.51-8,18-17.5,18.31-10.07.33-18.77-8.03-18.76-18.01.02-9.87,7.72-17.97,17.42-18.32,9.93-.36,18.71,8.05,18.83,18.03h.01Z"/>
  </g>
</svg>