<?xml version="1.0" encoding="UTF-8"?>
<svg id="Layer_2" data-name="Layer 2" xmlns="http://www.w3.org/2000/svg" viewBox="0 0 440.2 205.67">
  <defs>
    <style>
      .cls-1 {
        fill: #000;
        stroke-width: 0px;
      }
    </style>
  </defs>
  <g id="Layer_1-2" data-name="Layer 1">
    <g>
      <path class="cls-1" d="M440.18,72.93c-.22-6.65-4.93-12.43-11.41-13.88-1.56-.35-3.2-.4-4.8-.54-3.23-.29-6.02-1.55-8.41-3.72-3.27-2.98-4.58-6.78-4.7-11.12-.2-6.84-4.96-12.52-11.65-13.97-1.47-.32-3.01-.32-4.51-.49-5.92-.69-9.99-3.83-12.21-9.35-.74-1.83-.85-3.79-.94-5.75-.19-3.93-1.75-7.27-4.6-9.98C373.9,1.23,370.21,0,366.01,0c-9.32.05-18.65.02-27.98.02-.54,0-1.08.02-1.61.05-4.57.29-8.21,2.31-10.99,5.9-2.15,2.76-2.93,5.97-3.08,9.43-.25,5.98-3.26,10.18-8.63,12.71-2.08.98-4.31,1.2-6.58,1.2h-56.7c-.68,0-1.37-.04-2.05-.09-6.35-.5-11.42-4.78-12.89-10.98-.31-1.31-.37-2.7-.46-4.06-.24-4.04-1.81-7.45-4.78-10.2C227.12,1.07,223.36,0,219.12,0c-57.93.03-115.85.02-173.78.02-.68,0-1.37.01-2.05.06-4.45.29-8.02,2.25-10.78,5.71-2.26,2.82-3.11,6.12-3.21,9.68-.16,5.84-3.78,10.79-9.24,12.89-1.96.76-3.99.89-6.04,1-1.67.09-3.3.42-4.82,1.12C3.3,33.19.28,37.84.04,44.29c-.09,2.49,0,4.98,0,7.47,0,7.13-.03,14.26,0,21.39.03,6.99,4,12.57,10.51,14.6,1.69.52,3.54.65,5.33.77,7.45.51,13.33,6.44,13.41,13.89.11,10.06.1,20.12,0,30.17-.06,5.12-2.52,9.01-6.81,11.77-2.56,1.64-5.43,2.05-8.39,2.21-6.58.36-12,4.85-13.55,11.23-.32,1.32-.48,2.7-.49,4.05-.04,9.48-.04,18.95-.02,28.42.02,7.02,3.97,12.53,10.44,14.69,1.93.64,3.92.72,5.93.72h203.67c67.84,0,135.68,0,203.51,0,1.03,0,2.06-.02,3.08-.11,6.47-.53,11.88-5.3,13.18-11.67.27-1.33.34-2.71.34-4.07.02-38.47.02-76.95.01-115.42,0-.49,0-.98-.01-1.46ZM410.28,160.46c0,1.59-.14,3.23-.51,4.78-1.29,5.3-6.38,10.49-14.02,10.54-.59.01-1.18.01-1.76.01H104.17c-2.93,0-5.75-.38-8.32-1.89-4.71-2.79-7.12-6.97-7.3-12.4-.08-2.39-.48-4.67-1.6-6.78-2.6-4.89-6.66-7.63-12.2-8.17-1.79-.18-3.64-.25-5.34-.76-5.96-1.77-9.8-6.85-10.16-13.11-.02-.44-.03-.88-.03-1.32,0-19.04,0-38.08,0-57.13,0-4.53,1.48-8.41,4.91-11.45,2.42-2.15,5.26-3.33,8.49-3.53,2.2-.13,4.4-.22,6.46-1.11,5.78-2.5,8.97-6.89,9.4-13.17.18-2.51.43-4.96,1.64-7.21,2.56-4.75,6.52-7.38,11.92-7.8.68-.06,1.37-.06,2.05-.06h114.88c1.86,0,3.7.08,5.49.67,5.91,1.94,9.79,7.05,9.99,13.25.1,3.3.85,6.38,2.82,9.08,3.14,4.31,7.45,6.29,12.73,6.29,5.81.01,11.62,0,17.44,0,13.23,0,26.47,0,39.7.01,2.88,0,5.66-.43,8.17-1.9,4.73-2.78,7.39-6.91,7.61-12.41.16-3.89,1.16-7.4,3.84-10.32,4.01-4.36,10.09-5.8,15.69-3.72,5.4,2.01,9.04,7.06,9.22,12.9.1,3.3.83,6.39,2.78,9.1,3.16,4.37,7.52,6.35,12.85,6.34,9.28,0,18.56.02,27.84-.01,3-.01,5.84.53,8.38,2.17,4.22,2.74,6.53,6.61,6.77,11.67.02.48.01.97.01,1.46,0,28.66,0,57.32-.02,85.98Z"/>
      <path class="cls-1" d="M410.3,74.48c0,28.66,0,57.32-.02,85.98,0,1.59-.14,3.23-.51,4.78-1.29,5.3-6.38,10.49-14.02,10.54-.59.01-1.18.01-1.76.01H104.17c-2.93,0-5.75-.38-8.32-1.89-4.71-2.79-7.12-6.97-7.3-12.4-.08-2.39-.48-4.67-1.6-6.78-2.6-4.89-6.66-7.63-12.2-8.17-1.79-.18-3.64-.25-5.34-.76-5.96-1.77-9.8-6.85-10.16-13.11-.02-.44-.03-.88-.03-1.32,0-19.04,0-38.08,0-57.13,0-4.53,1.48-8.41,4.91-11.45,2.42-2.15,5.26-3.33,8.49-3.53,2.2-.13,4.4-.22,6.46-1.11,5.78-2.5,8.97-6.89,9.4-13.17.18-2.51.43-4.96,1.64-7.21,2.56-4.75,6.52-7.38,11.92-7.8.68-.06,1.37-.06,2.05-.06h114.88c1.86,0,3.7.08,5.49.67,5.91,1.94,9.79,7.05,9.99,13.25.1,3.3.85,6.38,2.82,9.08,3.14,4.31,7.45,6.29,12.73,6.29,5.81.01,11.62,0,17.44,0,13.23,0,26.47,0,39.7.01,2.88,0,5.66-.43,8.17-1.9,4.73-2.78,7.39-6.91,7.61-12.41.16-3.89,1.16-7.4,3.84-10.32,4.01-4.36,10.09-5.8,15.69-3.72,5.4,2.01,9.04,7.06,9.22,12.9.1,3.3.83,6.39,2.78,9.1,3.16,4.37,7.52,6.35,12.85,6.34,9.28,0,18.56.02,27.84-.01,3-.01,5.84.53,8.38,2.17,4.22,2.74,6.53,6.61,6.77,11.67.02.48.01.97.01,1.46Z"/>
    </g>
  </g>
</svg>