<?xml version="1.0" encoding="UTF-8"?>
<svg id="Layer_2" data-name="Layer 2" xmlns="http://www.w3.org/2000/svg" viewBox="0 0 403.8 217.65">
  <defs>
    <style>
      .cls-1 {
        fill: #000;
        stroke-width: 0px;
      }
    </style>
  </defs>
  <g id="Layer_1-2" data-name="Layer 1">
    <g>
      <path class="cls-1" d="M403.74,108.19c-.07-4.46-1.93-8.2-5.25-11.17-3.11-2.77-6.8-3.95-10.94-4.04-6.43-.14-11.95-4.31-13.99-10.41-.63-1.89-.79-3.83-.79-5.8V17.25c0-.72.01-1.45-.03-2.17-.21-4.34-1.91-8-5.11-10.92C364.38,1.19,360.5,0,356.12,0c-51.37.02-102.74.01-154.11.01H48.51c-.73,0-1.45-.01-2.17.02-4.39.2-8.11,1.89-11.11,5.1-2.92,3.14-4.14,6.93-4.23,11.17-.11,4.42-1.89,8.1-5.22,11-2.89,2.5-6.28,3.64-10.1,3.73-5.42.13-9.75,2.45-12.88,6.88-2.07,2.92-2.8,6.26-2.8,9.81.02,30.38.01,60.76.01,91.14,0,.41,0,.82.01,1.24.22,4.79,2.05,8.81,5.75,11.91,2.97,2.48,6.45,3.51,10.3,3.65,6.28.25,10.86,3.26,13.62,8.93.94,1.93,1.29,4.01,1.34,6.15.11,4.79,1.85,8.86,5.48,12.04,3.01,2.62,6.56,3.73,10.53,3.88,6.28.23,10.87,3.23,13.64,8.89.97,1.98,1.3,4.11,1.37,6.31.16,5.39,2.36,9.78,6.78,12.94,3.02,2.15,6.44,2.85,10.11,2.85,92.3-.02,184.61-.02,276.91-.02.52,0,1.04.01,1.55-.01,3.92-.14,7.38-1.46,10.26-4.14,3.48-3.24,5.13-7.27,5.12-12.03-.03-9.92-.05-19.84.02-29.76.02-1.83.23-3.74.77-5.48,1.87-6.14,7.46-10.28,13.87-10.58,1.49-.06,3.01-.16,4.45-.51,6.89-1.69,11.7-7.73,11.86-14.85.08-3.62.03-7.23.03-10.85,0-7.08.06-14.16-.04-21.23ZM371.29,144.8c-1.9,5.53-5.93,8.83-11.68,9.93-1.46.28-2.98.23-4.46.4-7.37.85-13.74,6.86-13.99,15.47-.07,2.41-.44,4.74-1.55,6.89-2.75,5.3-7.16,8.1-13.11,8.5-.57.04-1.14.02-1.7.02-71.58,0-143.17,0-214.75.02-3.06,0-5.98-.43-8.64-2-4.93-2.9-7.49-7.27-7.72-12.97-.08-2.24-.36-4.43-1.3-6.48-2.78-5.99-7.51-9.21-14.08-9.52-3.76-.18-7.54-.05-11.32-.05-6.77,0-13.54.09-20.31-.03-5.71-.1-10.06-2.75-13.01-7.63-1.31-2.17-1.88-4.57-2-7.08-.03-.52-.03-1.04-.03-1.55V47.89c0-2.72.34-5.37,1.62-7.8,2.79-5.29,7.21-8.07,13.16-8.44.67-.04,1.35-.02,2.02-.02h137.99c46.15,0,92.31,0,138.46-.01,2.19,0,4.33.23,6.39.99,5.71,2.1,9.64,7.54,9.84,13.61.02.73.02,1.45.02,2.17,0,19.89.01,39.78-.01,59.67,0,4.02,1.04,7.67,3.63,10.79,3.11,3.75,7.16,5.66,12.03,5.77,4.51.11,8.41,1.63,11.42,5.03,3.92,4.43,4.99,9.58,3.08,15.15Z"/>
      <path class="cls-1" d="M371.29,144.8c-1.9,5.53-5.93,8.83-11.68,9.93-1.46.28-2.98.23-4.46.4-7.37.85-13.74,6.86-13.99,15.47-.07,2.41-.44,4.74-1.55,6.89-2.75,5.3-7.16,8.1-13.11,8.5-.57.04-1.14.02-1.7.02-71.58,0-143.17,0-214.75.02-3.06,0-5.98-.43-8.64-2-4.93-2.9-7.49-7.27-7.72-12.97-.08-2.24-.36-4.43-1.3-6.48-2.78-5.99-7.51-9.21-14.08-9.52-3.76-.18-7.54-.05-11.32-.05-6.77,0-13.54.09-20.31-.03-5.71-.1-10.06-2.75-13.01-7.63-1.31-2.17-1.88-4.57-2-7.08-.03-.52-.03-1.04-.03-1.55V47.89c0-2.72.34-5.37,1.62-7.8,2.79-5.29,7.21-8.07,13.16-8.44.67-.04,1.35-.02,2.02-.02h137.99c46.15,0,92.31,0,138.46-.01,2.19,0,4.33.23,6.39.99,5.71,2.1,9.64,7.54,9.84,13.61.02.73.02,1.45.02,2.17,0,19.89.01,39.78-.01,59.67,0,4.02,1.04,7.67,3.63,10.79,3.11,3.75,7.16,5.66,12.03,5.77,4.51.11,8.41,1.63,11.42,5.03,3.92,4.43,4.99,9.58,3.08,15.15Z"/>
    </g>
  </g>
</svg>